<svg style="display: none;" aria-hidden="true" xmlns="http://www.w3.org/2000/svg" xmlns:xlink="http://www.w3.org/1999/xlink"><symbol viewBox="0 0 10 10" id="svg-close" xmlns="http://www.w3.org/2000/svg"><path d="m1.25 8.75 7.5-7.5-7.5 7.5ZM1.25 1.25l7.5 7.5-7.5-7.5ZM1.25 8.75l7.5-7.5m-7.5 0 7.5 7.5"/></symbol><symbol viewBox="0 0 57 52" id="svg-curtain" xmlns="http://www.w3.org/2000/svg"><path d="M0 25.422C7.28 23.112 10.544 7.512 11.267 0h41.6c2.6 0 4.333 4.16 4.333 6.933v38.134C57.2 47.233 54.773 52 52 52H11.267C11.122 45.644 8.667 31.431 0 25.422Z"/></symbol><symbol viewBox="0 0 24 24" id="svg-download" xmlns="http://www.w3.org/2000/svg"><path d="m12 15.5 3-3m-3-8v11-11Zm0 11-3-3 3 3ZM16 19H8c-.986 0-1.305-.005-1.548-.043a3.5 3.5 0 0 1-2.909-2.91c-.038-.242-.043-.56-.043-1.547 0-.986.005-1.305.043-1.547a3.5 3.5 0 0 1 2.91-2.91C6.694 10.005 7.012 10 8 10h.25a.75.75 0 0 0 0-1.5H8c-.929 0-1.394 0-1.782.062a5 5 0 0 0-4.156 4.156C2 13.107 2 13.57 2 14.5s0 1.393.062 1.782a5 5 0 0 0 4.156 4.156c.388.062.853.062 1.782.062h8c.929 0 1.393 0 1.782-.062a5 5 0 0 0 4.156-4.156C22 15.893 22 15.43 22 14.5s0-1.393-.062-1.782a5 5 0 0 0-4.156-4.156C17.393 8.5 16.93 8.5 16 8.5h-.25a.75.75 0 0 0 0 1.5H16c.986 0 1.305.005 1.547.043a3.5 3.5 0 0 1 2.91 2.91c.038.242.043.56.043 1.547 0 .986-.005 1.305-.043 1.547a3.5 3.5 0 0 1-2.91 2.91c-.242.038-.56.043-1.547.043Z"/></symbol><symbol viewBox="0 0 10 17" id="svg-right" xmlns="http://www.w3.org/2000/svg"><path d="m1 1 7.5 7.5L1 16"/></symbol><symbol viewBox="0 0 23 13" id="svg-rightArrow" xmlns="http://www.w3.org/2000/svg"><g clip-path="url(#ea)"><path d="M.793 6.345h20.62M16.655 1.057l5.288 5.288-5.288 5.287"/></g><defs><clipPath id="ea"><path fill="#fff" d="M0 0h23v12.69H0z"/></clipPath></defs></symbol><symbol viewBox="0 0 20 20" id="svg-send" xmlns="http://www.w3.org/2000/svg"><path d="m5.364 4.965 7.566-2.522c3.394-1.131 5.244.719 4.113 4.113l-2.522 7.566c-1.697 5.091-4.473 5.085-6.164 0L7.85 12.59c-.13-.389-.56-.82-.948-.949l-1.538-.512c-5.086-1.692-5.086-4.473 0-6.164ZM7.544 11.942l3.182-3.182"/></symbol></svg>