<svg width="20" height="20" viewBox="0 0 20 20" fill="none" xmlns="http://www.w3.org/2000/svg">
<path d="M6.74477 2.95215C5.91277 2.95215 5.23828 3.62663 5.23828 4.45864V8.47596C5.23828 11.1059 7.37026 13.2379 10.0002 13.2379C12.6301 13.2379 14.7621 11.1059 14.7621 8.47596V4.45864C14.7621 3.62663 14.0876 2.95215 13.2556 2.95215H6.74477Z" stroke="white" stroke-width="1.5"/>
<path d="M10 13.8091V14.571" stroke="white" stroke-width="1.5" stroke-linecap="round"/>
<path d="M12.2855 15.1426H7.7141C7.18811 15.1426 6.76172 15.569 6.76172 16.095C6.76172 16.6209 7.18811 17.0473 7.7141 17.0473H12.2855C12.8115 17.0473 13.2379 16.6209 13.2379 16.095C13.2379 15.569 12.8115 15.1426 12.2855 15.1426Z" stroke="white" stroke-width="1.5"/>
<path d="M5.04832 4.6665C3.99635 4.6665 3.14355 5.5193 3.14355 6.57127V6.8215C3.14355 7.39303 3.37059 7.94116 3.77474 8.34531L5.42927 9.99984" stroke="white" stroke-width="1.5" stroke-linecap="round" stroke-linejoin="round"/>
<path d="M14.9522 4.6665C16.0042 4.6665 16.857 5.5193 16.857 6.57127V6.8215C16.857 7.39303 16.63 7.94116 16.2258 8.34531L14.5713 9.99984" stroke="white" stroke-width="1.5" stroke-linecap="round" stroke-linejoin="round"/>
</svg>
