<svg width="20" height="19" viewBox="0 0 20 19" fill="none" xmlns="http://www.w3.org/2000/svg">
<path d="M3.06679 6.15045L3.73727 4.98915C4.13346 4.30293 5.02193 4.05929 5.71476 4.45929C6.90904 5.14881 7.88493 4.58613 7.88259 3.20353C7.88234 2.41159 8.53263 1.75769 9.33111 1.76124L10.8498 1.76706C11.5501 1.75789 12.1165 2.33122 12.1256 3.03153L12.1258 3.1988C12.1216 4.57759 13.0981 5.1414 14.2967 4.45213L14.4416 4.36867C15.0527 4.02646 15.8324 4.23027 16.1746 4.84134L16.939 6.15363C17.3413 6.8434 17.1002 7.7335 16.4142 8.12924C15.2156 8.81854 15.2163 9.94502 16.4106 10.6345C17.0968 11.0307 17.3405 11.9192 16.9405 12.612L16.27 13.7733C15.8738 14.4595 14.9853 14.7032 14.2925 14.3032C13.0982 13.6137 12.1223 14.1763 12.1246 15.5589C12.1211 16.3574 11.4746 17.0048 10.6761 17.0012L9.15747 16.9954C8.45715 17.0046 7.89079 16.4313 7.88162 15.7309L7.88141 15.5637C7.88567 14.1849 6.90912 13.6211 5.71058 14.3103L5.56562 14.3938C4.95455 14.736 4.17485 14.5322 3.83264 13.9211L3.06828 12.6089C2.66593 11.919 2.9071 11.029 3.59306 10.6332C4.7916 9.94395 4.79095 8.81747 3.59666 8.12795C2.90384 7.72793 2.6706 6.83667 3.06679 6.15045Z" stroke="white" stroke-width="1.5" stroke-miterlimit="10" stroke-linecap="round" stroke-linejoin="round"/>
<path d="M12.4768 9.38098C12.4768 8.01341 11.3682 6.90479 10.0006 6.90479C8.63304 6.90479 7.52441 8.01341 7.52441 9.38098C7.52441 10.7485 8.63304 11.8572 10.0006 11.8572C11.3682 11.8572 12.4768 10.7485 12.4768 9.38098Z" stroke="white" stroke-width="1.5"/>
</svg>
