<svg width="20" height="20" viewBox="0 0 20 20" fill="none" xmlns="http://www.w3.org/2000/svg">
<path d="M10.0005 3.14258C6.6342 3.14258 3.90527 5.87151 3.90527 9.23782V9.48726C3.90527 10.7715 4.31066 12.0157 5.05299 13.0473H5.04813L5.06565 13.0649C5.21736 13.2741 5.38299 13.4745 5.56196 13.6647C5.83165 13.9513 10.0005 17.2378 10.0005 17.2378C10.6089 16.9279 13.9426 14.1922 14.4391 13.6647C14.6199 13.4726 14.7871 13.2699 14.9402 13.0582L14.9529 13.0473H14.948C15.6903 12.0157 16.0958 10.7715 16.0958 9.48726V9.23782C16.0958 5.87151 13.3668 3.14258 10.0005 3.14258Z" stroke="white" stroke-width="1.5" stroke-linejoin="round"/>
<path d="M12.4768 9.23791C12.4768 7.87035 11.3682 6.76172 10.0006 6.76172C8.63304 6.76172 7.52441 7.87035 7.52441 9.23791C7.52441 10.6055 8.63304 11.7141 10.0006 11.7141C11.3682 11.7141 12.4768 10.6055 12.4768 9.23791Z" stroke="white" stroke-width="1.5"/>
</svg>
