<svg width="20" height="20" viewBox="0 0 20 20" fill="none" xmlns="http://www.w3.org/2000/svg">
<path d="M16.8578 14.3403C16.8578 14.5872 16.8029 14.8409 16.6862 15.0877C16.5694 15.3346 16.4183 15.5677 16.2191 15.7872C15.8827 16.1574 15.5119 16.4249 15.0929 16.5963C14.6809 16.7677 14.2344 16.8569 13.7538 16.8569C13.0533 16.8569 12.3047 16.6923 11.515 16.3563C10.7252 16.0203 9.93548 15.5677 9.15255 14.9986C8.36282 14.4226 7.61426 13.7849 6.90005 13.0786C6.1927 12.3654 5.55403 11.618 4.98403 10.8363C4.4209 10.0546 3.96765 9.27286 3.63801 8.49801C3.30837 7.71629 3.14355 6.96886 3.14355 6.25572C3.14355 5.78944 3.22596 5.34372 3.39079 4.93229C3.5556 4.51401 3.81657 4.13001 4.18054 3.78715C4.62006 3.35515 5.10077 3.14258 5.60896 3.14258C5.80125 3.14258 5.99354 3.18372 6.16523 3.26601C6.34378 3.34829 6.50173 3.47172 6.62535 3.65001L8.21859 5.89229C8.34221 6.06372 8.43149 6.22144 8.49327 6.37229C8.55514 6.51629 8.58942 6.66029 8.58942 6.79058C8.58942 6.95515 8.54135 7.11972 8.44522 7.27744C8.35594 7.43515 8.22547 7.59972 8.06064 7.76429L7.53872 8.30601C7.46317 8.38144 7.42884 8.47058 7.42884 8.58029C7.42884 8.63515 7.43571 8.68315 7.44944 8.73801C7.47005 8.79286 7.49065 8.83401 7.50439 8.87515C7.628 9.10144 7.84089 9.39629 8.14305 9.75286C8.45209 10.1094 8.78173 10.4729 9.13883 10.8363C9.50965 11.1997 9.86675 11.5357 10.2308 11.8443C10.5879 12.146 10.8831 12.3517 11.1167 12.4751C11.151 12.4889 11.1922 12.5094 11.2402 12.53C11.2952 12.5506 11.3502 12.5574 11.412 12.5574C11.5287 12.5574 11.618 12.5163 11.6935 12.4409L12.2155 11.9266C12.3871 11.7551 12.5519 11.6249 12.7099 11.5426C12.8678 11.4466 13.0258 11.3986 13.1975 11.3986C13.328 11.3986 13.4653 11.426 13.6164 11.4877C13.7675 11.5494 13.9254 11.6386 14.0972 11.7551L16.3702 13.3666C16.5488 13.49 16.6724 13.634 16.748 13.8054C16.8166 13.9769 16.8578 14.1483 16.8578 14.3403Z" stroke="white" stroke-width="1.5" stroke-miterlimit="10"/>
</svg>
