<svg width="20" height="20" viewBox="0 0 20 20" fill="none" xmlns="http://www.w3.org/2000/svg">
<path d="M15.3336 8.28564H14.5717C13.6249 8.28564 12.8574 9.05316 12.8574 9.99993C12.8574 10.9467 13.6249 11.7142 14.5717 11.7142H15.3336C16.2804 11.7142 17.0479 10.9467 17.0479 9.99993C17.0479 9.05316 16.2804 8.28564 15.3336 8.28564Z" stroke="white" stroke-width="1.5"/>
<path d="M8.4761 5.04764H10.7618C12.2308 5.04764 13.2175 5.05007 13.9536 5.14903C14.6567 5.24357 14.9577 5.40696 15.1563 5.60553C15.3549 5.80412 15.5182 6.10506 15.6128 6.80824C15.6728 7.25475 15.6974 7.79351 15.7073 8.47621H16.8504C16.8231 6.58702 16.683 5.51595 15.9644 4.79741C15.0718 3.90479 13.6351 3.90479 10.7618 3.90479H8.4761C5.60277 3.90479 4.16612 3.90479 3.27348 4.79741C2.38086 5.69004 2.38086 7.1267 2.38086 10C2.38086 12.8733 2.38086 14.31 3.27348 15.2026C4.16612 16.0953 5.60277 16.0953 8.4761 16.0953H10.7618C13.6351 16.0953 15.0718 16.0953 15.9644 15.2026C16.683 14.4841 16.8231 13.4131 16.8504 11.5238H15.7073C15.6974 12.2065 15.6728 12.7453 15.6128 13.1918C15.5182 13.895 15.3549 14.1959 15.1563 14.3945C14.9577 14.5931 14.6567 14.7564 13.9536 14.851C13.2175 14.95 12.2308 14.9524 10.7618 14.9524H8.4761C7.00713 14.9524 6.02037 14.95 5.28431 14.851C4.58113 14.7564 4.28019 14.5931 4.08161 14.3945C3.88303 14.1959 3.71964 13.895 3.6251 13.1918C3.52615 12.4557 3.52372 11.469 3.52372 10C3.52372 8.53107 3.52615 7.5443 3.6251 6.80824C3.71964 6.10506 3.88303 5.80412 4.08161 5.60553C4.28019 5.40696 4.58113 5.24357 5.28431 5.14903C6.02037 5.05007 7.00713 5.04764 8.4761 5.04764Z" fill="white"/>
<path d="M6 7.90479H10.1905" stroke="white" stroke-width="1.5" stroke-linecap="round"/>
</svg>
