<svg width="20" height="20" viewBox="0 0 20 20" fill="none" xmlns="http://www.w3.org/2000/svg">
<path d="M12.4768 5.42834C12.4768 6.7959 11.3681 7.90453 10.0006 7.90453C8.63306 7.90453 7.52441 6.7959 7.52441 5.42834C7.52441 4.06077 8.63306 2.95215 10.0006 2.95215C11.3681 2.95215 12.4768 4.06077 12.4768 5.42834Z" stroke="white" stroke-width="1.5"/>
<path d="M14.7621 13.8094C14.7621 14.6289 14.298 15.4248 13.4393 16.0381C12.5817 16.6508 11.3676 17.0475 10.0002 17.0475C8.6328 17.0475 7.41871 16.6508 6.56108 16.0381C5.70236 15.4248 5.23828 14.6289 5.23828 13.8094C5.23828 12.9899 5.70236 12.194 6.56108 11.5807C7.41871 10.968 8.6328 10.5713 10.0002 10.5713C11.3676 10.5713 12.5817 10.968 13.4393 11.5807C14.298 12.194 14.7621 12.9899 14.7621 13.8094Z" stroke="white" stroke-width="1.5"/>
</svg>
