<svg width="20" height="20" viewBox="0 0 20 20" fill="none" xmlns="http://www.w3.org/2000/svg">
<path d="M17.0484 9.99977C17.0484 6.10748 13.893 2.95215 10.0007 2.95215C6.10845 2.95215 2.95312 6.10748 2.95312 9.99977C2.95312 13.8921 6.10845 17.0474 10.0007 17.0474C13.893 17.0474 17.0484 13.8921 17.0484 9.99977Z" stroke="white" stroke-width="1.5"/>
<path d="M9.06348 8.57416L11.14 7.89982C11.732 7.70758 12.2923 8.26782 12.1 8.8598L11.4257 10.9363C11.3503 11.1684 11.1684 11.3503 10.9363 11.4257L8.85982 12.1C8.26782 12.2923 7.70757 11.732 7.89983 11.14L8.57418 9.06346C8.64953 8.83146 8.83148 8.64952 9.06348 8.57416Z" stroke="white" stroke-width="1.5"/>
</svg>
