<svg width="126" height="29" viewBox="0 0 126 29" fill="none" xmlns="http://www.w3.org/2000/svg">
<g opacity="0.6">
<path d="M36.4973 8.28819H39.6529V21.0175H36.4973V8.28819ZM40.9046 16.2112C40.9046 13.063 42.8401 11.1846 45.8273 11.1846C48.8146 11.1846 50.7501 13.063 50.7501 16.2112C50.7501 19.3594 48.8567 21.2484 45.8273 21.2484C42.798 21.2484 40.9046 19.4119 40.9046 16.2112ZM47.584 16.2112C47.584 14.4797 46.9002 13.4618 45.8273 13.4618C44.7544 13.4618 44.0813 14.5112 44.0813 16.2112C44.0813 17.9112 44.7439 18.9397 45.8273 18.9397C46.9108 18.9397 47.584 17.9742 47.584 16.2217V16.2112ZM51.9387 21.6366H54.968C55.1122 21.9562 55.3559 22.2207 55.663 22.3909C55.97 22.5611 56.3239 22.6278 56.672 22.5811C57.8712 22.5811 58.5023 21.9305 58.5023 20.986V19.223H58.4392C58.1878 19.7633 57.7798 20.2161 57.2679 20.5229C56.7561 20.8297 56.1638 20.9763 55.5676 20.944C53.264 20.944 51.7388 19.1915 51.7388 16.1797C51.7388 13.1679 53.1904 11.2685 55.6097 11.2685C56.2246 11.2445 56.8322 11.4085 57.351 11.7386C57.8699 12.0687 58.2753 12.5491 58.5128 13.1155V11.363H61.6684V20.9126C61.6684 23.2108 59.6383 24.638 56.6405 24.638C53.8531 24.638 52.1175 23.3892 51.9387 21.6471V21.6366ZM58.5128 16.2007C58.5128 14.6686 57.8081 13.7031 56.6931 13.7031C55.5781 13.7031 54.8944 14.6581 54.8944 16.2007C54.8944 17.7433 55.5676 18.6144 56.6931 18.6144C57.8186 18.6144 58.5128 17.7643 58.5128 16.2112V16.2007ZM62.857 16.2007C62.857 13.0525 64.7924 11.1741 67.7797 11.1741C70.767 11.1741 72.7129 13.0525 72.7129 16.2007C72.7129 19.3489 70.8196 21.2379 67.7797 21.2379C64.7398 21.2379 62.857 19.4119 62.857 16.2112V16.2007ZM69.5363 16.2007C69.5363 14.4692 68.8526 13.4513 67.7797 13.4513C66.7068 13.4513 66.0862 14.5112 66.0862 16.2217C66.0862 17.9322 66.7489 18.9502 67.8218 18.9502C68.8947 18.9502 69.5363 17.9742 69.5363 16.2217V16.2007ZM73.9121 9.07524C73.9038 8.75738 73.9903 8.44423 74.1606 8.17549C74.331 7.90674 74.5775 7.6945 74.8688 7.56567C75.1602 7.43685 75.4834 7.39724 75.7973 7.45186C76.1113 7.50649 76.402 7.65289 76.6324 7.87251C76.8629 8.09213 77.0228 8.37507 77.0919 8.68548C77.161 8.99588 77.1362 9.31976 77.0206 9.61607C76.905 9.91237 76.7038 10.1678 76.4425 10.3498C76.1812 10.5319 75.8716 10.6325 75.553 10.6389C75.3417 10.6533 75.1298 10.6241 74.9304 10.5529C74.7311 10.4818 74.5486 10.3703 74.3945 10.2254C74.2404 10.0805 74.118 9.90544 74.035 9.71112C73.952 9.5168 73.9101 9.30746 73.9121 9.09623V9.07524ZM73.9121 11.3839H77.0676V21.0175H73.9121V11.3839ZM88.5224 16.2007C88.5224 19.3489 87.1234 21.1434 84.7252 21.1434C84.1102 21.1828 83.498 21.0328 82.9712 20.7138C82.4445 20.3947 82.0287 19.9219 81.78 19.3594H81.7169V24.1028H78.5613V11.363H81.7169V13.084H81.78C82.0171 12.5122 82.425 12.0271 82.9482 11.6948C83.4714 11.3624 84.0845 11.1989 84.7042 11.2265C87.1234 11.2685 88.5645 13.0735 88.5645 16.2217L88.5224 16.2007ZM85.3668 16.2007C85.3668 14.6686 84.6621 13.6926 83.5576 13.6926C82.4532 13.6926 81.7484 14.6791 81.7379 16.2007C81.7274 17.7224 82.4532 18.6983 83.5576 18.6983C84.6621 18.6983 85.3668 17.7433 85.3668 16.2217V16.2007ZM93.9395 11.1636C96.5586 11.1636 98.147 12.4019 98.2206 14.3852H95.349C95.349 13.7031 94.781 13.2729 93.908 13.2729C93.0349 13.2729 92.6457 13.6087 92.6457 14.1019C92.6457 14.5951 92.9928 14.7525 93.6976 14.8995L95.7172 15.3087C97.6421 15.718 98.4625 16.4946 98.4625 17.9532C98.4625 19.9471 96.6428 21.2274 93.9605 21.2274C91.2783 21.2274 89.5217 19.9471 89.3849 17.9847H92.4248C92.5195 18.6983 93.0875 19.1181 94.0131 19.1181C94.9388 19.1181 95.3595 18.8137 95.3595 18.31C95.3595 17.8063 95.065 17.7014 94.3077 17.544L92.4879 17.1557C90.6051 16.7674 89.6164 15.7705 89.6164 14.3013C89.6374 12.4124 91.3309 11.1846 93.9395 11.1846V11.1636ZM108.992 20.9965H105.952V19.202H105.889C105.722 19.8045 105.353 20.3318 104.844 20.6965C104.335 21.0611 103.716 21.241 103.091 21.2064C102.611 21.2336 102.132 21.1578 101.684 20.9841C101.236 20.8105 100.832 20.543 100.496 20.1998C100.161 19.8566 99.9041 19.4456 99.742 18.9947C99.5798 18.5438 99.5165 18.0634 99.5564 17.5859V11.363H102.712V16.8618C102.712 18.0057 103.301 18.6144 104.279 18.6144C104.509 18.6148 104.736 18.5664 104.945 18.4722C105.154 18.3781 105.34 18.2404 105.492 18.0685C105.643 17.8966 105.756 17.6944 105.822 17.4754C105.889 17.2564 105.908 17.0258 105.878 16.7989V11.363H109.034L108.992 20.9965ZM110.517 11.363H113.567V13.2204H113.63C113.798 12.6259 114.158 12.1036 114.655 11.7352C115.152 11.3668 115.757 11.1731 116.376 11.1846C117.005 11.1342 117.631 11.3222 118.128 11.7111C118.625 12.1 118.957 12.6613 119.058 13.2834H119.121C119.312 12.6547 119.707 12.1073 120.244 11.7273C120.781 11.3473 121.43 11.1564 122.087 11.1846C122.516 11.1702 122.944 11.246 123.342 11.4072C123.74 11.5683 124.099 11.8112 124.397 12.12C124.694 12.4288 124.923 12.7966 125.069 13.1995C125.215 13.6024 125.274 14.0315 125.243 14.4587V21.0175H122.087V15.2982C122.087 14.2488 121.614 13.7661 120.73 13.7661C120.533 13.7644 120.338 13.8049 120.158 13.8849C119.978 13.9649 119.818 14.0824 119.687 14.2296C119.556 14.3768 119.459 14.5502 119.401 14.7382C119.344 14.9262 119.327 15.1243 119.352 15.3192V21.0175H116.355V15.2562C116.355 14.2908 115.881 13.7661 115.019 13.7661C114.82 13.7662 114.623 13.8084 114.441 13.8899C114.259 13.9715 114.097 14.0906 113.965 14.2394C113.832 14.3881 113.733 14.5631 113.674 14.7529C113.614 14.9427 113.596 15.1428 113.62 15.3402V21.0175H110.464L110.517 11.363Z" fill="#032640"/>
<path d="M27.6722 8.86541C27.1369 7.64428 26.4285 6.50628 25.5685 5.48633C24.2973 3.93356 22.7109 2.66698 20.9137 1.76996C19.1165 0.87294 17.1492 0.365813 15.1414 0.281957C13.1336 0.198101 11.1307 0.539415 9.26467 1.28344C7.39861 2.02746 5.71164 3.15733 4.31479 4.59866C2.91794 6.04 1.84288 7.76013 1.16038 9.64584C0.477878 11.5316 0.203401 13.5401 0.355018 15.5393C0.506635 17.5384 1.08091 19.4829 2.04004 21.2447C2.99916 23.0065 4.3214 24.5456 5.91973 25.7609C6.9453 26.5562 8.07852 27.2028 9.28569 27.6813C10.9782 28.3733 12.7895 28.7297 14.6186 28.7307C18.3942 28.7224 22.0124 27.2209 24.6802 24.5554C27.3479 21.89 28.8475 18.278 28.8503 14.5112C28.8531 12.5683 28.452 10.6459 27.6722 8.86541ZM14.6081 3.16713C16.2506 3.16696 17.8734 3.52512 19.3625 4.21654C18.9994 4.37308 18.6176 4.48241 18.2265 4.54186C16.9397 4.7277 15.7476 5.32375 14.8281 6.24103C13.9087 7.15831 13.3113 8.34763 13.125 9.63148C13.0432 10.3515 12.715 11.0213 12.1957 11.528C11.6764 12.0346 10.9978 12.347 10.2744 12.4124C8.98758 12.5983 7.79548 13.1943 6.87605 14.1116C5.95663 15.0289 5.35919 16.2182 5.17291 17.502C5.10984 18.1867 4.81705 18.83 4.34193 19.328C3.52217 17.5999 3.15391 15.693 3.27143 13.7847C3.38894 11.8765 3.98841 10.0289 5.01404 8.41391C6.03968 6.79892 7.45815 5.46903 9.13745 4.54799C10.8167 3.62696 12.7023 3.14472 14.6186 3.14614L14.6081 3.16713ZM5.90921 21.8571C6.03543 21.7416 6.16166 21.6367 6.28788 21.5108C7.22367 20.6056 7.82435 19.4108 7.9919 18.1212C8.05983 17.3963 8.38424 16.7192 8.90702 16.2113C9.41007 15.6888 10.0872 15.3679 10.8109 15.3088C12.0977 15.1229 13.2898 14.5269 14.2093 13.6096C15.1287 12.6923 15.7261 11.503 15.9124 10.2192C15.9579 9.46097 16.284 8.74667 16.8275 8.21478C17.343 7.70251 18.0266 7.3932 18.7524 7.34377C19.9346 7.1815 21.0372 6.65716 21.908 5.84312C22.8996 6.66383 23.7397 7.65114 24.3904 8.76048C24.3505 8.81436 24.3046 8.86364 24.2537 8.90739C23.7516 9.4344 23.0754 9.76241 22.3498 9.83087C21.0616 10.0135 19.8677 10.6085 18.9477 11.5263C18.0277 12.4442 17.4313 13.6353 17.2483 14.9205C17.1742 15.6429 16.852 16.3176 16.3363 16.8302C15.8206 17.3427 15.1432 17.6616 14.4188 17.7329C13.1282 17.9173 11.9316 18.5122 11.0069 19.4291C10.0821 20.346 9.4785 21.5361 9.28569 22.8225C9.22908 23.3354 9.05253 23.8279 8.77027 24.2602C7.69106 23.621 6.7245 22.8091 5.90921 21.8571ZM14.6081 25.9078C13.5408 25.909 12.4785 25.7606 11.4525 25.467C11.8035 24.8143 12.0317 24.103 12.1257 23.3682C12.1994 22.6474 12.5201 21.974 13.0337 21.4616C13.5472 20.9493 14.2222 20.6294 14.9447 20.5558C16.2335 20.3721 17.4279 19.7769 18.3494 18.8595C19.2709 17.942 19.8699 16.7516 20.0568 15.4662C20.1305 14.7454 20.4512 14.072 20.9647 13.5596C21.4783 13.0473 22.1532 12.7273 22.8757 12.6538C23.8456 12.5279 24.7699 12.1677 25.5685 11.6044C26.0119 13.2812 26.0645 15.0371 25.7221 16.7374C25.3797 18.4376 24.6514 20.0371 23.5933 21.4129C22.5351 22.7888 21.1751 23.9046 19.6175 24.6746C18.06 25.4447 16.3464 25.8486 14.6081 25.8553V25.9078Z" fill="#032640"/>
</g>
</svg>
