<svg width="138" height="31" viewBox="0 0 138 31" fill="none" xmlns="http://www.w3.org/2000/svg">
<g opacity="0.6">
<path d="M33.5519 7.28961H36.7075V22.598H33.5519V7.28961Z" fill="#032640"/>
<path d="M38.4746 17.3539C38.4746 16.2525 38.7993 15.1759 39.4075 14.2606C40.0157 13.3453 40.88 12.6325 41.8909 12.2124C42.9018 11.7924 44.0138 11.6842 45.0859 11.9014C46.1579 12.1185 47.1418 12.6514 47.9129 13.4325C48.6839 14.2135 49.2073 15.2075 49.4168 16.2885C49.6264 17.3694 49.5125 18.4887 49.0897 19.5045C48.6669 20.5202 47.9541 21.3866 47.0419 21.9939C46.1296 22.6012 45.0588 22.9221 43.9653 22.9158C43.24 22.9215 42.5209 22.7813 41.8501 22.5034C41.1793 22.2255 40.5703 21.8155 40.0589 21.2975C39.5475 20.7795 39.144 20.1638 38.8719 19.4866C38.5998 18.8094 38.4648 18.0844 38.4746 17.3539ZM46.3846 17.3539C46.3722 16.8791 46.221 16.4185 45.9501 16.0297C45.6791 15.641 45.3004 15.3413 44.8612 15.1682C44.4221 14.9951 43.942 14.9562 43.481 15.0565C43.02 15.1567 42.5986 15.3916 42.2695 15.7318C41.9404 16.072 41.7181 16.5024 41.6306 16.9691C41.5431 17.4359 41.5941 17.9182 41.7773 18.3559C41.9605 18.7936 42.2678 19.1671 42.6607 19.4298C43.0536 19.6925 43.5147 19.8327 43.9863 19.8329C44.3074 19.8392 44.6264 19.7787 44.9232 19.6553C45.22 19.5318 45.4884 19.348 45.7115 19.1153C45.9346 18.8827 46.1077 18.6062 46.2199 18.3031C46.3321 18 46.381 17.6769 46.3635 17.3539H46.3846Z" fill="#032640"/>
<path d="M61.9417 12.1099V22.0788C61.9417 25.5961 59.2068 27.0898 56.4404 27.0898C55.4647 27.1705 54.4859 26.9752 53.6143 26.526C52.7428 26.0768 52.013 25.3915 51.5072 24.5473L54.1684 23.0005C54.3841 23.4384 54.7271 23.7997 55.1518 24.0363C55.5765 24.2729 56.0627 24.3735 56.5456 24.3248C56.8532 24.363 57.1655 24.3322 57.4599 24.2347C57.7544 24.1372 58.0238 23.9753 58.2489 23.7607C58.474 23.5462 58.6493 23.2841 58.7622 22.9934C58.875 22.7026 58.9227 22.3903 58.9018 22.0788V21.1148C58.5346 21.5632 58.0686 21.9192 57.5409 22.1546C57.0133 22.39 56.4384 22.4983 55.8619 22.4708C54.467 22.4708 53.1293 21.9128 52.143 20.9194C51.1567 19.926 50.6026 18.5787 50.6026 17.1738C50.6026 15.769 51.1567 14.4216 52.143 13.4283C53.1293 12.4349 54.467 11.8768 55.8619 11.8768C56.4384 11.8494 57.0133 11.9576 57.5409 12.193C58.0686 12.4284 58.5346 12.7844 58.9018 13.2328V12.1734L61.9417 12.1099ZM58.9018 17.142C58.9228 16.6352 58.7927 16.1336 58.5284 15.7018C58.2641 15.27 57.8775 14.9276 57.4185 14.7189C56.9594 14.5101 56.4489 14.4444 55.9525 14.5302C55.456 14.616 54.9965 14.8494 54.6328 15.2004C54.2692 15.5514 54.0181 16.0039 53.9118 16.4998C53.8056 16.9957 53.849 17.5122 54.0366 17.983C54.2242 18.4538 54.5474 18.8573 54.9645 19.1417C55.3816 19.426 55.8736 19.5782 56.3773 19.5787C56.706 19.6025 57.0359 19.5567 57.3459 19.4441C57.6559 19.3315 57.939 19.1547 58.1769 18.9251C58.4148 18.6954 58.6022 18.4181 58.7271 18.111C58.8519 17.8039 58.9114 17.4738 58.9018 17.142Z" fill="#032640"/>
<path d="M63.7193 17.3539C63.7193 16.2534 64.0434 15.1777 64.6507 14.2628C65.2579 13.3479 66.121 12.6351 67.1307 12.2144C68.1404 11.7938 69.2513 11.6842 70.3228 11.8997C71.3943 12.1152 72.3782 12.6459 73.1501 13.4248C73.922 14.2037 74.4471 15.1958 74.659 16.2754C74.8709 17.3549 74.76 18.4736 74.3404 19.4897C73.9208 20.5058 73.2114 21.3737 72.3019 21.9836C71.3924 22.5934 70.3237 22.9179 69.231 22.9158C68.5043 22.9229 67.7836 22.7838 67.111 22.5066C66.4384 22.2295 65.8275 21.8199 65.3142 21.3019C64.8008 20.7839 64.3953 20.1678 64.1214 19.4899C63.8476 18.812 63.7108 18.0858 63.7193 17.3539ZM71.6293 17.3539C71.6168 16.8786 71.4654 16.4176 71.194 16.0286C70.9226 15.6397 70.5432 15.34 70.1034 15.1672C69.6637 14.9944 69.183 14.9562 68.7218 15.0573C68.2605 15.1584 67.8392 15.3944 67.5105 15.7357C67.1818 16.0769 66.9604 16.5083 66.8741 16.9757C66.7877 17.4431 66.8403 17.9258 67.0251 18.3632C67.2099 18.8007 67.5188 19.1735 67.9131 19.435C68.3074 19.6964 68.7695 19.8348 69.2415 19.8329C69.5626 19.8392 69.8816 19.7787 70.1784 19.6553C70.4752 19.5318 70.7436 19.348 70.9667 19.1153C71.1898 18.8827 71.3629 18.6062 71.4751 18.3031C71.5872 18 71.6362 17.6769 71.6187 17.3539H71.6293Z" fill="#032640"/>
<path d="M76.2049 9.30242C76.2049 8.92945 76.3147 8.56486 76.5205 8.25475C76.7262 7.94465 77.0186 7.70295 77.3607 7.56022C77.7028 7.41749 78.0793 7.38015 78.4425 7.45291C78.8057 7.52567 79.1393 7.70527 79.4012 7.969C79.663 8.23272 79.8413 8.56873 79.9136 8.93452C79.9858 9.30032 79.9487 9.67948 79.807 10.0241C79.6653 10.3686 79.4253 10.6631 79.1174 10.8703C78.8095 11.0776 78.4475 11.1882 78.0772 11.1882C77.5824 11.1826 77.1093 10.9822 76.7593 10.6297C76.4094 10.2773 76.2104 9.80083 76.2049 9.30242ZM76.51 12.1098H79.6655V22.5979H76.51V12.1098Z" fill="#032640"/>
<path d="M93.1714 17.3539C93.2068 18.0515 93.1048 18.7491 92.8714 19.4068C92.6381 20.0645 92.2778 20.6692 91.8115 21.1861C91.3452 21.7031 90.782 22.122 90.1543 22.4188C89.5266 22.7157 88.8468 22.8846 88.154 22.9158C87.5661 22.9552 86.977 22.8604 86.4306 22.6384C85.8842 22.4165 85.3947 22.0731 84.9984 21.6339V26.8144H81.8428V12.1099H84.9984V13.0952C85.3952 12.6573 85.8851 12.3155 86.4316 12.0953C86.9781 11.8752 87.5669 11.7824 88.154 11.8239C88.844 11.8552 89.5211 12.023 90.1467 12.3179C90.7722 12.6127 91.334 13.0288 91.7999 13.5423C92.2658 14.0558 92.6267 14.6567 92.862 15.3107C93.0974 15.9647 93.2025 16.659 93.1714 17.3539ZM90.0158 17.3539C90.0034 16.8619 89.847 16.3845 89.5664 15.9816C89.2857 15.5787 88.8932 15.2681 88.438 15.0889C87.9829 14.9097 87.4853 14.8698 87.0077 14.9742C86.5301 15.0786 86.0938 15.3227 85.7533 15.6758C85.4129 16.0289 85.1835 16.4753 85.0939 16.9592C85.0043 17.443 85.0585 17.9428 85.2497 18.3957C85.4409 18.8487 85.7606 19.2347 86.1687 19.5055C86.5769 19.7762 87.0552 19.9196 87.5439 19.9177C87.8787 19.932 88.2126 19.8749 88.5239 19.7501C88.8352 19.6253 89.1167 19.4356 89.3501 19.1936C89.5835 18.9515 89.7635 18.6625 89.8782 18.3454C89.993 18.0284 90.0398 17.6905 90.0158 17.3539Z" fill="#032640"/>
<path d="M102.775 19.4515C102.775 21.867 100.671 22.8946 98.4412 22.8946C97.5317 22.977 96.6185 22.7829 95.8197 22.3372C95.021 21.8915 94.3732 21.2147 93.9603 20.3944L96.6741 18.8477C96.7816 19.2257 97.0147 19.555 97.3345 19.7807C97.6542 20.0063 98.0412 20.1145 98.4307 20.0872C99.1775 20.0872 99.5562 19.8541 99.5562 19.4303C99.5562 18.2756 94.4336 18.89 94.4336 15.2563C94.4336 12.968 96.348 11.8238 98.5148 11.8238C99.3385 11.7867 100.157 11.9749 100.883 12.3685C101.609 12.762 102.215 13.3463 102.638 14.0592L99.9243 15.4999C99.8045 15.2266 99.6086 14.9942 99.3603 14.8306C99.112 14.667 98.822 14.5794 98.5254 14.5783C97.9784 14.5783 97.6523 14.7901 97.6523 15.1609C97.6523 16.3687 102.775 15.5741 102.775 19.4515Z" fill="#032640"/>
<path d="M114.209 12.1099V22.598H111.053V21.6128C110.695 22.0489 110.239 22.394 109.724 22.6204C109.209 22.8467 108.648 22.9479 108.087 22.9158C105.983 22.9158 104.184 21.4009 104.184 18.5723V12.1099H107.34V18.0955C107.315 18.3458 107.345 18.5985 107.426 18.8361C107.508 19.0738 107.64 19.2908 107.813 19.4721C107.986 19.6534 108.196 19.7947 108.428 19.8863C108.661 19.9779 108.91 20.0175 109.16 20.0025C110.296 20.0025 111.095 19.3244 111.095 17.8837V12.1099H114.209Z" fill="#032640"/>
<path d="M132.09 16.1568V22.5979H128.935V16.4322C128.935 15.3728 128.44 14.716 127.441 14.716C126.442 14.716 125.811 15.447 125.811 16.6865V22.5979H122.655V16.4322C122.655 15.3728 122.161 14.716 121.161 14.716C120.162 14.716 119.531 15.447 119.531 16.6865V22.5979H116.375V12.1099H119.531V13.0739C119.858 12.648 120.284 12.3107 120.773 12.0925C121.261 11.8742 121.796 11.7819 122.329 11.8238C122.863 11.7958 123.394 11.908 123.872 12.1495C124.35 12.3909 124.757 12.7533 125.053 13.201C125.4 12.7332 125.859 12.3616 126.386 12.1207C126.914 11.8799 127.494 11.7777 128.072 11.8238C130.533 11.8238 132.09 13.54 132.09 16.1568Z" fill="#032640"/>
<path d="M14.7551 4.53517V0.0327148H0.660156V30.9672H14.7551V26.4648C11.8678 26.4648 9.09866 25.3096 7.057 23.2533C5.01533 21.197 3.86834 18.408 3.86834 15.5C3.86834 12.5919 5.01533 9.80299 7.057 7.74669C9.09866 5.69039 11.8678 4.53517 14.7551 4.53517Z" fill="#032640"/>
<path d="M14.7551 4.53517V26.4648C17.6425 26.4648 20.4115 25.3096 22.4531 23.2533C24.4948 21.197 25.6418 18.408 25.6418 15.5C25.6418 12.5919 24.4948 9.80299 22.4531 7.74669C20.4115 5.69039 17.6425 4.53517 14.7551 4.53517Z" fill="#032640"/>
<path d="M134.741 12.0463C136.019 12.0463 137.055 11.0028 137.055 9.71562C137.055 8.42842 136.019 7.38493 134.741 7.38493C133.463 7.38493 132.427 8.42842 132.427 9.71562C132.427 11.0028 133.463 12.0463 134.741 12.0463Z" fill="#032640"/>
</g>
</svg>
