<svg width="138" height="31" viewBox="0 0 138 31" fill="none" xmlns="http://www.w3.org/2000/svg">
<g opacity="0.6">
<path d="M33.8107 7.28961H36.9662V22.598H33.8107V7.28961Z" fill="#032640"/>
<path d="M38.7334 17.3539C38.7334 16.2525 39.0581 15.1759 39.6663 14.2606C40.2745 13.3453 41.1388 12.6325 42.1497 12.2124C43.1606 11.7924 44.2726 11.6842 45.3447 11.9014C46.4167 12.1185 47.4006 12.6514 48.1717 13.4325C48.9427 14.2135 49.4661 15.2075 49.6756 16.2885C49.8851 17.3694 49.7713 18.4887 49.3485 19.5045C48.9256 20.5202 48.2129 21.3866 47.3007 21.9939C46.3884 22.6012 45.3176 22.9221 44.2241 22.9158C43.4988 22.9215 42.7797 22.7813 42.1089 22.5034C41.4381 22.2255 40.8291 21.8155 40.3177 21.2975C39.8063 20.7795 39.4028 20.1638 39.1307 19.4866C38.8586 18.8094 38.7236 18.0844 38.7334 17.3539ZM46.6434 17.3539C46.631 16.8791 46.4798 16.4185 46.2089 16.0297C45.9379 15.641 45.5592 15.3413 45.12 15.1682C44.6808 14.9951 44.2007 14.9562 43.7398 15.0565C43.2788 15.1567 42.8574 15.3916 42.5283 15.7318C42.1992 16.072 41.9769 16.5024 41.8894 16.9691C41.8019 17.4359 41.8529 17.9182 42.0361 18.3559C42.2193 18.7936 42.5266 19.1671 42.9195 19.4298C43.3124 19.6925 43.7735 19.8327 44.2451 19.8329C44.5662 19.8392 44.8852 19.7787 45.182 19.6553C45.4788 19.5318 45.7472 19.348 45.9703 19.1153C46.1934 18.8827 46.3665 18.6062 46.4786 18.3031C46.5908 18 46.6398 17.6769 46.6223 17.3539H46.6434Z" fill="#032640"/>
<path d="M62.2004 12.1099V22.0788C62.2004 25.5961 59.4656 27.0898 56.6992 27.0898C55.7234 27.1705 54.7447 26.9752 53.8731 26.526C53.0016 26.0768 52.2718 25.3915 51.766 24.5473L54.4272 23.0005C54.6428 23.4384 54.9859 23.7997 55.4106 24.0363C55.8353 24.2729 56.3215 24.3735 56.8044 24.3248C57.112 24.363 57.4242 24.3322 57.7187 24.2347C58.0132 24.1372 58.2826 23.9753 58.5077 23.7607C58.7328 23.5462 58.9081 23.2841 59.0209 22.9934C59.1338 22.7026 59.1815 22.3903 59.1606 22.0788V21.1148C58.7934 21.5632 58.3274 21.9192 57.7997 22.1546C57.2721 22.39 56.6972 22.4983 56.1207 22.4708C54.7258 22.4708 53.3881 21.9128 52.4018 20.9194C51.4155 19.926 50.8614 18.5787 50.8614 17.1738C50.8614 15.769 51.4155 14.4216 52.4018 13.4283C53.3881 12.4349 54.7258 11.8768 56.1207 11.8768C56.6972 11.8494 57.2721 11.9576 57.7997 12.193C58.3274 12.4284 58.7934 12.7844 59.1606 13.2328V12.1734L62.2004 12.1099ZM59.1606 17.142C59.1815 16.6352 59.0515 16.1336 58.7872 15.7018C58.5229 15.27 58.1363 14.9276 57.6773 14.7189C57.2182 14.5101 56.7077 14.4444 56.2113 14.5302C55.7148 14.616 55.2552 14.8494 54.8916 15.2004C54.5279 15.5514 54.2769 16.0039 54.1706 16.4998C54.0644 16.9957 54.1078 17.5122 54.2954 17.983C54.483 18.4538 54.8061 18.8573 55.2233 19.1417C55.6404 19.426 56.1324 19.5782 56.6361 19.5787C56.9647 19.6025 57.2947 19.5567 57.6047 19.4441C57.9147 19.3315 58.1978 19.1547 58.4357 18.9251C58.6736 18.6954 58.861 18.4181 58.9859 18.111C59.1107 17.8039 59.1702 17.4738 59.1606 17.142Z" fill="#032640"/>
<path d="M63.9781 17.3539C63.9781 16.2534 64.3022 15.1777 64.9095 14.2628C65.5167 13.3479 66.3798 12.6351 67.3895 12.2144C68.3991 11.7938 69.51 11.6842 70.5815 11.8997C71.653 12.1152 72.637 12.6459 73.4089 13.4248C74.1808 14.2037 74.7059 15.1958 74.9178 16.2754C75.1297 17.3549 75.0188 18.4736 74.5992 19.4897C74.1796 20.5058 73.4702 21.3737 72.5607 21.9836C71.6512 22.5934 70.5825 22.9179 69.4898 22.9158C68.7631 22.9229 68.0424 22.7838 67.3698 22.5066C66.6972 22.2295 66.0863 21.8199 65.573 21.3019C65.0596 20.7839 64.6541 20.1678 64.3802 19.4899C64.1063 18.812 63.9696 18.0858 63.9781 17.3539ZM71.888 17.3539C71.8756 16.8786 71.7242 16.4176 71.4528 16.0286C71.1814 15.6397 70.802 15.34 70.3622 15.1672C69.9224 14.9944 69.4418 14.9562 68.9806 15.0573C68.5193 15.1584 68.098 15.3944 67.7693 15.7357C67.4406 16.0769 67.2192 16.5083 67.1329 16.9757C67.0465 17.4431 67.099 17.9258 67.2839 18.3632C67.4687 18.8007 67.7776 19.1735 68.1719 19.435C68.5662 19.6964 69.0283 19.8348 69.5003 19.8329C69.8214 19.8392 70.1404 19.7787 70.4372 19.6553C70.734 19.5318 71.0024 19.348 71.2255 19.1153C71.4486 18.8827 71.6217 18.6062 71.7338 18.3031C71.846 18 71.895 17.6769 71.8775 17.3539H71.888Z" fill="#032640"/>
<path d="M76.4637 9.30242C76.4637 8.92945 76.5735 8.56486 76.7792 8.25475C76.985 7.94465 77.2774 7.70295 77.6195 7.56022C77.9616 7.41749 78.3381 7.38015 78.7013 7.45291C79.0645 7.52567 79.3981 7.70527 79.6599 7.969C79.9218 8.23272 80.1001 8.56873 80.1723 8.93452C80.2446 9.30032 80.2075 9.67948 80.0658 10.0241C79.9241 10.3686 79.6841 10.6631 79.3762 10.8703C79.0683 11.0776 78.7063 11.1882 78.336 11.1882C77.8411 11.1826 77.3681 10.9822 77.0181 10.6297C76.6682 10.2773 76.4692 9.80083 76.4637 9.30242ZM76.7687 12.1098H79.9243V22.5979H76.7687V12.1098Z" fill="#032640"/>
<path d="M93.4302 17.3539C93.4656 18.0515 93.3636 18.7491 93.1302 19.4068C92.8968 20.0645 92.5366 20.6692 92.0703 21.1861C91.604 21.7031 91.0408 22.122 90.4131 22.4188C89.7854 22.7157 89.1056 22.8846 88.4128 22.9158C87.8249 22.9552 87.2358 22.8604 86.6894 22.6384C86.143 22.4165 85.6535 22.0731 85.2572 21.6339V26.8144H82.1016V12.1099H85.2572V13.0952C85.654 12.6573 86.1439 12.3155 86.6904 12.0953C87.2368 11.8752 87.8257 11.7824 88.4128 11.8239C89.1028 11.8552 89.7799 12.023 90.4054 12.3179C91.031 12.6127 91.5928 13.0288 92.0587 13.5423C92.5246 14.0558 92.8855 14.6567 93.1208 15.3107C93.3562 15.9647 93.4613 16.659 93.4302 17.3539ZM90.2746 17.3539C90.2622 16.8619 90.1058 16.3845 89.8251 15.9816C89.5445 15.5787 89.152 15.2681 88.6968 15.0889C88.2416 14.9097 87.7441 14.8698 87.2665 14.9742C86.7889 15.0786 86.3526 15.3227 86.0121 15.6758C85.6717 16.0289 85.4423 16.4753 85.3527 16.9592C85.2631 17.443 85.3173 17.9428 85.5085 18.3957C85.6997 18.8487 86.0194 19.2347 86.4275 19.5055C86.8356 19.7762 87.314 19.9196 87.8027 19.9177C88.1375 19.932 88.4714 19.8749 88.7827 19.7501C89.094 19.6253 89.3755 19.4356 89.6089 19.1936C89.8423 18.9515 90.0223 18.6625 90.137 18.3454C90.2517 18.0284 90.2986 17.6905 90.2746 17.3539Z" fill="#032640"/>
<path d="M103.034 19.4515C103.034 21.867 100.93 22.8946 98.7 22.8946C97.7905 22.977 96.8773 22.7829 96.0785 22.3372C95.2797 21.8915 94.632 21.2147 94.2191 20.3944L96.9329 18.8477C97.0404 19.2257 97.2735 19.555 97.5933 19.7807C97.913 20.0063 98.3 20.1145 98.6895 20.0872C99.4363 20.0872 99.815 19.8541 99.815 19.4303C99.815 18.2756 94.6924 18.89 94.6924 15.2563C94.6924 12.968 96.6068 11.8238 98.7736 11.8238C99.5973 11.7867 100.416 11.9749 101.142 12.3685C101.868 12.762 102.474 13.3463 102.897 14.0592L100.183 15.4999C100.063 15.2266 99.8673 14.9942 99.6191 14.8306C99.3708 14.667 99.0808 14.5794 98.7841 14.5783C98.2372 14.5783 97.9111 14.7901 97.9111 15.1609C97.9111 16.3687 103.034 15.5741 103.034 19.4515Z" fill="#032640"/>
<path d="M114.467 12.1099V22.598H111.312V21.6128C110.953 22.0489 110.498 22.394 109.983 22.6204C109.468 22.8467 108.907 22.9479 108.346 22.9158C106.242 22.9158 104.443 21.4009 104.443 18.5723V12.1099H107.599V18.0955C107.574 18.3458 107.603 18.5985 107.685 18.8361C107.767 19.0738 107.898 19.2908 108.071 19.4721C108.244 19.6534 108.455 19.7947 108.687 19.8863C108.92 19.9779 109.169 20.0175 109.418 20.0025C110.554 20.0025 111.354 19.3244 111.354 17.8837V12.1099H114.467Z" fill="#032640"/>
<path d="M132.349 16.1568V22.5979H129.193V16.4322C129.193 15.3728 128.699 14.716 127.7 14.716C126.701 14.716 126.069 15.447 126.069 16.6865V22.5979H122.914V16.4322C122.914 15.3728 122.419 14.716 121.42 14.716C120.421 14.716 119.79 15.447 119.79 16.6865V22.5979H116.634V12.1099H119.79V13.0739C120.116 12.648 120.543 12.3107 121.032 12.0925C121.52 11.8742 122.055 11.7819 122.588 11.8238C123.121 11.7958 123.653 11.908 124.131 12.1495C124.608 12.3909 125.015 12.7533 125.312 13.201C125.659 12.7332 126.117 12.3616 126.645 12.1207C127.173 11.8799 127.753 11.7777 128.331 11.8238C130.792 11.8238 132.349 13.54 132.349 16.1568Z" fill="#032640"/>
<path d="M15.0139 4.53517V0.0327148H0.918945V30.9672H15.0139V26.4648C12.1265 26.4648 9.35745 25.3096 7.31579 23.2533C5.27412 21.197 4.12712 18.408 4.12712 15.5C4.12712 12.5919 5.27412 9.80299 7.31579 7.74669C9.35745 5.69039 12.1265 4.53517 15.0139 4.53517Z" fill="#032640"/>
<path d="M15.0139 4.53517V26.4648C17.9012 26.4648 20.6703 25.3096 22.7119 23.2533C24.7536 21.197 25.9006 18.408 25.9006 15.5C25.9006 12.5919 24.7536 9.80299 22.7119 7.74669C20.6703 5.69039 17.9012 4.53517 15.0139 4.53517Z" fill="#032640"/>
<path d="M135 12.0463C136.278 12.0463 137.314 11.0028 137.314 9.71562C137.314 8.42842 136.278 7.38493 135 7.38493C133.722 7.38493 132.686 8.42842 132.686 9.71562C132.686 11.0028 133.722 12.0463 135 12.0463Z" fill="#032640"/>
</g>
</svg>
