<svg width="124" height="25" viewBox="0 0 124 25" fill="none" xmlns="http://www.w3.org/2000/svg">
<g opacity="0.6">
<path d="M39.8301 20.1886C39.2078 20.2221 38.5923 20.0464 38.0829 19.6897C37.87 19.5329 37.6987 19.3271 37.5839 19.0898C37.4691 18.8526 37.4141 18.5911 37.4237 18.3281V8.69272C37.4186 8.65193 37.423 8.61052 37.4364 8.57164C37.4499 8.53277 37.4721 8.49745 37.5013 8.46839C37.5306 8.43932 37.5661 8.41727 37.6053 8.40391C37.6444 8.39055 37.6861 8.38623 37.7271 8.39129H39.4848C39.6836 8.39129 39.7778 8.49523 39.7778 8.69272V17.5797C39.7778 17.9747 39.9556 18.1722 40.3218 18.1722C40.477 18.1785 40.6323 18.161 40.7822 18.1202C40.9914 18.1202 41.1065 18.1826 41.117 18.3697L41.2739 19.6689C41.2814 19.7068 41.2807 19.7458 41.2718 19.7834C41.2629 19.821 41.2459 19.8562 41.2221 19.8868C41.1983 19.9173 41.1682 19.9424 41.1338 19.9604C41.0995 19.9784 41.0616 19.9889 41.0228 19.9911C40.6378 20.1175 40.2355 20.1841 39.8301 20.1886Z" fill="#032640"/>
<path d="M49.717 19.0765C48.8338 19.8015 47.724 20.198 46.5783 20.198C45.4327 20.198 44.3228 19.8015 43.4396 19.0765C42.6633 18.298 42.2278 17.2464 42.2278 16.1506C42.2278 15.0547 42.6633 14.0032 43.4396 13.2246C44.3245 12.5034 45.4337 12.1092 46.5783 12.1092C47.7229 12.1092 48.8321 12.5034 49.717 13.2246C50.4754 14.0103 50.8988 15.0568 50.8988 16.1454C50.8988 17.2339 50.4754 18.2804 49.717 19.0661V19.0765ZM45.0927 17.7045C45.5025 18.0733 46.0358 18.2776 46.5888 18.2776C47.1418 18.2776 47.675 18.0733 48.0849 17.7045C48.4558 17.2808 48.6601 16.7381 48.6601 16.1765C48.6601 15.615 48.4558 15.0723 48.0849 14.6486C47.675 14.2798 47.1418 14.0755 46.5888 14.0755C46.0358 14.0755 45.5025 14.2798 45.0927 14.6486C44.7217 15.0723 44.5174 15.615 44.5174 16.1765C44.5174 16.7381 44.7217 17.2808 45.0927 17.7045Z" fill="#032640"/>
<path d="M60.5769 12.3722C60.7757 12.3722 60.8699 12.4762 60.8699 12.6737V20.1263C60.8882 20.6293 60.7934 21.13 60.5925 21.5921C60.3917 22.0541 60.0897 22.4659 59.7086 22.7976C58.8626 23.5142 57.7747 23.8856 56.664 23.837C55.6608 23.872 54.671 23.5999 53.8287 23.0574C53.469 22.8228 53.1618 22.5171 52.926 22.1595C52.6902 21.8019 52.531 21.3999 52.4581 20.9786C52.4581 20.7707 52.4581 20.6772 52.7406 20.6772H54.4983C54.5729 20.6797 54.6452 20.7036 54.7065 20.746C54.7678 20.7884 54.8154 20.8475 54.8436 20.9162C54.9576 21.2319 55.1848 21.4947 55.4818 21.6542C55.8437 21.8397 56.2464 21.9326 56.6536 21.9245C56.8992 21.9378 57.1451 21.9024 57.3768 21.8203C57.6085 21.7382 57.8215 21.6111 58.0032 21.4463C58.1692 21.2739 58.2984 21.07 58.3829 20.8467C58.4674 20.6234 58.5055 20.3854 58.4949 20.1471V19.4922C57.8656 19.9521 57.0997 20.1899 56.3188 20.1678C55.7722 20.1876 55.2273 20.0974 54.7167 19.9027C54.2061 19.708 53.7404 19.4128 53.3475 19.0349C52.5932 18.2596 52.1715 17.2236 52.1715 16.1453C52.1715 15.0671 52.5932 14.031 53.3475 13.2557C53.7423 12.8811 54.2086 12.5888 54.7189 12.396C55.2292 12.2032 55.7731 12.1138 56.3188 12.1332C57.1223 12.1121 57.9088 12.3652 58.5472 12.8504V12.6841C58.5424 12.6442 58.5466 12.6038 58.5595 12.5658C58.5724 12.5278 58.5936 12.4931 58.6216 12.4642C58.6497 12.4354 58.6839 12.4131 58.7217 12.399C58.7595 12.3848 58.8 12.3793 58.8402 12.3826L60.5769 12.3722ZM56.5175 18.3177C56.7871 18.326 57.0552 18.2753 57.3028 18.1694C57.5505 18.0634 57.7718 17.9047 57.9509 17.7044C58.2987 17.2582 58.4875 16.7097 58.4875 16.1453C58.4875 15.5809 58.2987 15.0325 57.9509 14.5862C57.7724 14.3886 57.5525 14.2323 57.3067 14.1281C57.0609 14.024 56.7951 13.9746 56.528 13.9833C56.2554 13.9748 55.9841 14.0252 55.733 14.1311C55.4819 14.237 55.257 14.3958 55.0737 14.5966C54.6884 15.0235 54.4857 15.5828 54.5088 16.1557C54.4899 16.723 54.688 17.2764 55.0633 17.7044C55.247 17.9046 55.472 18.0631 55.723 18.1689C55.974 18.2748 56.245 18.3255 56.5175 18.3177Z" fill="#032640"/>
<path d="M69.8989 19.0765C69.014 19.7977 67.9048 20.1919 66.7602 20.1919C65.6156 20.1919 64.5064 19.7977 63.6215 19.0765C62.8624 18.289 62.4387 17.2408 62.4387 16.1505C62.4387 15.0602 62.8624 14.012 63.6215 13.2246C64.5072 12.5052 65.6161 12.1122 66.7602 12.1122C67.9042 12.1122 69.0131 12.5052 69.8989 13.2246C70.6572 14.0103 71.0807 15.0567 71.0807 16.1453C71.0807 17.2339 70.6572 18.2804 69.8989 19.0661V19.0765ZM65.2641 17.7044C65.4646 17.894 65.7011 18.0421 65.9597 18.1403C66.2183 18.2384 66.4939 18.2846 66.7706 18.2761C67.0456 18.2832 67.3193 18.2363 67.576 18.1382C67.8327 18.0402 68.0674 17.8927 68.2667 17.7044C68.6316 17.2779 68.832 16.7363 68.832 16.1765C68.832 15.6167 68.6316 15.0751 68.2667 14.6486C68.0674 14.4603 67.8327 14.3128 67.576 14.2147C67.3193 14.1167 67.0456 14.0698 66.7706 14.0769C66.4939 14.0684 66.2183 14.1146 65.9597 14.2127C65.7011 14.3109 65.4646 14.459 65.2641 14.6486C64.8992 15.0751 64.6988 15.6167 64.6988 16.1765C64.6988 16.7363 64.8992 17.2779 65.2641 17.7044Z" fill="#032640"/>
<path d="M74.8581 10.6053C74.5815 10.8458 74.2265 10.9783 73.8589 10.9783C73.4914 10.9783 73.1363 10.8458 72.8598 10.6053C72.7344 10.4877 72.6345 10.3459 72.5662 10.1887C72.4979 10.0314 72.4627 9.86189 72.4627 9.6906C72.4627 9.51931 72.4979 9.34982 72.5662 9.19254C72.6345 9.03525 72.7344 8.89348 72.8598 8.77591C73.1392 8.54143 73.4932 8.4128 73.8589 8.4128C74.2247 8.4128 74.5787 8.54143 74.8581 8.77591C74.9835 8.89348 75.0834 9.03525 75.1517 9.19254C75.2199 9.34982 75.2552 9.51931 75.2552 9.6906C75.2552 9.86189 75.2199 10.0314 75.1517 10.1887C75.0834 10.3459 74.9835 10.4877 74.8581 10.6053ZM75.0778 20.1887C74.4559 20.219 73.8414 20.0435 73.3306 19.6898C73.121 19.5307 72.9527 19.3241 72.8398 19.0872C72.727 18.8503 72.6728 18.59 72.6819 18.3281V12.6737C72.6768 12.6329 72.6812 12.5915 72.6946 12.5526C72.7081 12.5138 72.7303 12.4785 72.7595 12.4494C72.7888 12.4203 72.8243 12.3983 72.8635 12.3849C72.9026 12.3715 72.9443 12.3672 72.9853 12.3723H74.743C74.9418 12.3723 75.0359 12.4762 75.0359 12.6737V17.5797C75.0359 17.9747 75.2138 18.1722 75.5695 18.1722C75.7282 18.1779 75.8868 18.1604 76.0403 18.1202C76.2496 18.1202 76.3647 18.1826 76.3751 18.3697L76.5321 19.669C76.5396 19.7068 76.5389 19.7459 76.53 19.7835C76.521 19.8211 76.5041 19.8563 76.4803 19.8868C76.4565 19.9174 76.4264 19.9425 76.392 19.9605C76.3576 19.9785 76.3198 19.9889 76.281 19.9912C75.8926 20.1183 75.4867 20.1849 75.0778 20.1887Z" fill="#032640"/>
<path d="M82.9979 12.1228C83.5469 12.1013 84.0947 12.1896 84.6087 12.3824C85.1227 12.5752 85.5925 12.8687 85.9901 13.2454C86.73 14.0342 87.1414 15.0724 87.1414 16.1506C87.1414 17.2288 86.73 18.2669 85.9901 19.0557C85.5944 19.4358 85.1252 19.7321 84.6109 19.9269C84.0966 20.1216 83.5479 20.2107 82.9979 20.1887C82.2144 20.206 81.4467 19.9688 80.8113 19.5131V23.2654C80.8113 23.4628 80.7066 23.5564 80.5079 23.5564H78.7502C78.7101 23.5638 78.6687 23.5615 78.6298 23.5495C78.5908 23.5375 78.5554 23.5162 78.5265 23.4876C78.4977 23.4589 78.4763 23.4237 78.4642 23.385C78.4521 23.3463 78.4497 23.3052 78.4572 23.2654V14.7422C78.4696 14.6588 78.4621 14.5737 78.4354 14.4937C78.4088 14.4138 78.3636 14.3411 78.3037 14.2815C78.2437 14.2219 78.1705 14.1771 78.09 14.1506C78.0095 14.1241 77.9239 14.1167 77.84 14.1289H77.4947C77.2645 14.1289 77.1494 14.0458 77.1494 13.8795V12.6529C77.144 12.5771 77.1649 12.5016 77.2087 12.4392C77.2525 12.3768 77.3165 12.3311 77.3901 12.3099C77.752 12.1792 78.135 12.1158 78.52 12.1228C78.904 12.0891 79.2893 12.17 79.6267 12.3552C79.9641 12.5403 80.2381 12.8214 80.4137 13.1623C80.7507 12.8236 81.1537 12.5567 81.598 12.378C82.0423 12.1993 82.5187 12.1125 82.9979 12.1228ZM81.3658 17.7045C81.5523 17.8982 81.7764 18.0523 82.0246 18.1576C82.2727 18.2629 82.5397 18.3172 82.8096 18.3172C83.0794 18.3172 83.3465 18.2629 83.5946 18.1576C83.8427 18.0523 84.0668 17.8982 84.2534 17.7045C84.6464 17.2691 84.8528 16.6985 84.8288 16.1142C84.8562 15.5294 84.6493 14.9575 84.2534 14.5239C84.0668 14.3302 83.8427 14.1761 83.5946 14.0707C83.3465 13.9654 83.0794 13.9111 82.8096 13.9111C82.5397 13.9111 82.2727 13.9654 82.0246 14.0707C81.7764 14.1761 81.5523 14.3302 81.3658 14.5239C80.9851 14.9652 80.7869 15.5335 80.8113 16.1142C80.79 16.6944 80.9878 17.2616 81.3658 17.7045Z" fill="#032640"/>
<path d="M92.0791 20.1886C91.1399 20.227 90.2086 20.0038 89.3903 19.5442C89.062 19.3477 88.7824 19.0803 88.5723 18.7618C88.3622 18.4433 88.227 18.0819 88.1767 17.7044C88.1767 17.4965 88.2499 17.3926 88.4801 17.3926H90.0181C90.0912 17.3954 90.1622 17.4183 90.2231 17.4586C90.284 17.499 90.3325 17.5553 90.3633 17.6213C90.583 18.1826 91.1584 18.4632 92.0791 18.4632C92.4003 18.4778 92.7201 18.4135 93.0103 18.2761C93.1105 18.2312 93.1964 18.16 93.2591 18.0703C93.3217 17.9806 93.3587 17.8757 93.366 17.7668C93.366 17.4965 93.1986 17.3094 92.8638 17.1847C92.4667 17.0534 92.0562 16.9663 91.6397 16.9249C91.1464 16.8694 90.6572 16.7826 90.175 16.665C89.7061 16.5596 89.2797 16.317 88.9509 15.9686C88.7572 15.7318 88.6147 15.4579 88.5321 15.1641C88.4495 14.8702 88.4287 14.5626 88.4709 14.2604C88.5131 13.9581 88.6174 13.6678 88.7774 13.4073C88.9373 13.1469 89.1495 12.9219 89.4008 12.7464C90.1549 12.2692 91.0397 12.0367 91.9327 12.0812C92.7972 12.0522 93.6527 12.2646 94.4018 12.6945C94.7037 12.8643 94.9636 13.099 95.1627 13.3813C95.3618 13.6636 95.495 13.9864 95.5527 14.3263C95.5527 14.5342 95.4585 14.6382 95.2702 14.6382H93.7217C93.6565 14.642 93.5917 14.6262 93.5357 14.5928C93.4797 14.5594 93.4351 14.51 93.4079 14.4511C93.3044 14.2049 93.1096 14.0076 92.8638 13.9002C92.5865 13.756 92.2769 13.6845 91.9641 13.6923C91.6574 13.6757 91.3514 13.7365 91.0748 13.869C90.9773 13.9064 90.8933 13.9719 90.8336 14.0571C90.7739 14.1423 90.7413 14.2433 90.74 14.3471C90.7466 14.4893 90.799 14.6255 90.8894 14.7359C90.9798 14.8463 91.1034 14.925 91.2421 14.9604C91.6439 15.1108 92.0616 15.2154 92.4872 15.2722C92.9765 15.3362 93.4619 15.4264 93.9414 15.5424C94.4103 15.6479 94.8367 15.8904 95.1655 16.2388C95.3414 16.4308 95.4773 16.6555 95.5653 16.8999C95.6533 17.1443 95.6917 17.4036 95.6782 17.6628C95.6872 18.0222 95.6023 18.3776 95.4318 18.6946C95.2613 19.0116 95.0109 19.2792 94.7052 19.4714C93.9235 19.97 93.0075 20.2201 92.0791 20.1886Z" fill="#032640"/>
<path d="M106.737 19.6689C106.743 19.7058 106.741 19.7435 106.732 19.7798C106.723 19.8161 106.707 19.8503 106.685 19.8803C106.662 19.9103 106.634 19.9356 106.602 19.9546C106.569 19.9737 106.534 19.9861 106.496 19.9911C106.114 20.115 105.716 20.1816 105.314 20.1886C104.916 20.2295 104.515 20.1678 104.148 20.0094C103.782 19.851 103.463 19.6012 103.222 19.2843C102.483 19.9156 101.527 20.2395 100.554 20.1886C100.102 20.2093 99.6506 20.1358 99.2289 19.973C98.8073 19.8101 98.4246 19.5613 98.1055 19.2428C97.7886 18.909 97.5428 18.515 97.3828 18.0846C97.2228 17.6542 97.1519 17.1961 97.1744 16.7378V12.6737C97.1744 12.4762 97.2685 12.3722 97.4673 12.3722H99.225C99.4238 12.3722 99.518 12.4762 99.518 12.6737V16.426C99.4988 16.8934 99.6597 17.3506 99.9678 17.7044C100.122 17.8665 100.309 17.994 100.516 18.0783C100.724 18.1625 100.947 18.2016 101.171 18.193C101.4 18.2029 101.629 18.1676 101.845 18.0891C102.06 18.0106 102.258 17.8905 102.426 17.7356C102.586 17.5724 102.71 17.3784 102.791 17.1657C102.872 16.9529 102.908 16.7259 102.897 16.4987V12.6737C102.897 12.4762 102.991 12.3722 103.19 12.3722H104.969C105.168 12.3722 105.262 12.4762 105.262 12.6737V17.5693C105.262 17.9747 105.44 18.1722 105.785 18.1722C105.947 18.1784 106.109 18.1609 106.266 18.1202C106.306 18.1092 106.347 18.1072 106.388 18.1144C106.428 18.1216 106.466 18.1378 106.5 18.1618C106.533 18.1859 106.56 18.217 106.58 18.253C106.599 18.289 106.61 18.3289 106.611 18.3697L106.737 19.6689Z" fill="#032640"/>
<path d="M123.362 19.669C123.371 19.7062 123.372 19.745 123.364 19.7826C123.357 19.8202 123.341 19.8557 123.318 19.8865C123.295 19.9173 123.265 19.9427 123.231 19.9608C123.197 19.9789 123.16 19.9893 123.121 19.9912C122.732 20.1168 122.327 20.1834 121.918 20.1887C121.296 20.2206 120.681 20.045 120.171 19.6898C119.95 19.5376 119.771 19.3337 119.648 19.0962C119.526 18.8587 119.465 18.5949 119.47 18.3281V15.8855C119.492 15.4194 119.335 14.9624 119.03 14.607C118.883 14.4446 118.702 14.3165 118.5 14.232C118.297 14.1475 118.078 14.1088 117.858 14.1185C117.661 14.1111 117.464 14.1484 117.282 14.2276C117.101 14.3068 116.94 14.4259 116.812 14.5758C116.536 14.9241 116.395 15.3594 116.415 15.8023V19.6378C116.415 19.8353 116.32 19.9392 116.122 19.9392H114.354C114.312 19.9443 114.271 19.94 114.232 19.9266C114.193 19.9132 114.157 19.8912 114.128 19.8621C114.098 19.833 114.076 19.7977 114.063 19.7589C114.049 19.72 114.045 19.6786 114.05 19.6378V15.8855C114.073 15.4245 113.928 14.9707 113.642 14.607C113.515 14.4542 113.355 14.3313 113.174 14.2468C112.993 14.1624 112.796 14.1186 112.596 14.1185C112.382 14.1099 112.17 14.1463 111.971 14.2251C111.773 14.3039 111.594 14.4234 111.445 14.5758C111.146 14.913 110.992 15.3535 111.016 15.8023V19.6378C111.021 19.6786 111.017 19.72 111.003 19.7589C110.99 19.7977 110.968 19.833 110.938 19.8621C110.909 19.8912 110.874 19.9132 110.834 19.9266C110.795 19.94 110.754 19.9443 110.713 19.9392H109.007C108.808 19.9392 108.714 19.8353 108.714 19.6378V14.7422C108.727 14.6588 108.719 14.5737 108.692 14.4937C108.666 14.4137 108.621 14.3411 108.561 14.2815C108.501 14.2219 108.428 14.1771 108.347 14.1506C108.267 14.1241 108.181 14.1167 108.097 14.1289H107.752C107.522 14.1289 107.407 14.0457 107.407 13.8794V12.6529C107.401 12.577 107.422 12.5016 107.466 12.4392C107.51 12.3767 107.574 12.3311 107.647 12.3099C108.009 12.1792 108.392 12.1158 108.777 12.1228C109.147 12.0916 109.518 12.1647 109.847 12.3339C110.177 12.5031 110.451 12.7615 110.639 13.0791C110.992 12.7467 111.411 12.4903 111.868 12.3257C112.325 12.1612 112.812 12.0921 113.297 12.1228C113.768 12.1 114.238 12.1878 114.669 12.3792C115.1 12.5707 115.479 12.8603 115.776 13.2246C116.123 12.8507 116.548 12.558 117.022 12.3674C117.496 12.1769 118.007 12.0933 118.518 12.1228C118.974 12.1016 119.43 12.1747 119.857 12.3375C120.284 12.5003 120.672 12.7493 120.997 13.0687C121.315 13.4018 121.561 13.7956 121.722 14.2262C121.882 14.6568 121.952 15.1153 121.928 15.5737V17.5797C121.928 17.9747 122.106 18.1722 122.441 18.1722C122.603 18.1797 122.765 18.1622 122.922 18.1202C123.138 18.1202 123.254 18.2034 123.267 18.3697L123.362 19.669Z" fill="#032640"/>
<path d="M0.679933 11.0211C1.45181 7.93886 3.23947 5.20182 5.75827 3.24575C8.27706 1.28968 11.3822 0.227051 14.5792 0.227051C17.7762 0.227051 20.8813 1.28968 23.4001 3.24575C25.9189 5.20182 27.7066 7.93886 28.4784 11.0211H27.223C25.105 10.9901 23.0306 11.6189 21.2908 12.8193C21.1904 12.8915 21.0856 12.9574 20.9769 13.0167H20.8305C20.7218 12.9574 20.617 12.8915 20.5166 12.8193C18.7614 11.6467 16.6943 11.0204 14.5792 11.0204C12.4641 11.0204 10.397 11.6467 8.6418 12.8193C8.54139 12.8915 8.43657 12.9574 8.32793 13.0167H8.18145C8.07281 12.9574 7.96799 12.8915 7.86758 12.8193C6.12783 11.6189 4.05333 10.9901 1.93542 11.0211H0.679933ZM24.9631 17.5382C25.6076 17.0395 26.4064 16.7787 27.223 16.8002H28.9074V13.4637H27.223C25.7846 13.4464 24.3791 13.8912 23.2159 14.7318C22.5612 15.2112 21.7693 15.4699 20.956 15.4699C20.1427 15.4699 19.3508 15.2112 18.6961 14.7318C17.5033 13.9069 16.0848 13.4647 14.6315 13.4647C13.1782 13.4647 11.7597 13.9069 10.5669 14.7318C9.91224 15.2112 9.1203 15.4699 8.307 15.4699C7.4937 15.4699 6.70176 15.2112 6.04713 14.7318C4.86948 13.8804 3.44388 13.4351 1.98773 13.4637H0.250977V16.8002H1.93542C2.75202 16.7787 3.5508 17.0395 4.19529 17.5382C5.38592 18.3636 6.80282 18.8062 8.25469 18.8062C9.70656 18.8062 11.1235 18.3636 12.3141 17.5382C12.9594 17.0411 13.7576 16.7804 14.574 16.8002C15.3908 16.777 16.1902 17.038 16.8338 17.5382C18.0266 18.3631 19.4451 18.8053 20.8985 18.8053C22.3518 18.8053 23.7703 18.3631 24.9631 17.5382ZM24.9631 23.5044C25.6076 23.0058 26.4064 22.7449 27.223 22.7664H28.9074V19.4299H27.223C25.7846 19.4126 24.3791 19.8574 23.2159 20.698C22.5612 21.1775 21.7693 21.4362 20.956 21.4362C20.1427 21.4362 19.3508 21.1775 18.6961 20.698C17.5033 19.8731 16.0848 19.4309 14.6315 19.4309C13.1782 19.4309 11.7597 19.8731 10.5669 20.698C9.91224 21.1775 9.1203 21.4362 8.307 21.4362C7.4937 21.4362 6.70176 21.1775 6.04713 20.698C4.86948 19.8467 3.44388 19.4013 1.98773 19.4299H0.250977V22.7664H1.93542C2.75202 22.7449 3.5508 23.0058 4.19529 23.5044C5.38592 24.3299 6.80282 24.7725 8.25469 24.7725C9.70656 24.7725 11.1235 24.3299 12.3141 23.5044C12.9594 23.0073 13.7576 22.7467 14.574 22.7664C15.3908 22.7432 16.1902 23.0042 16.8338 23.5044C18.0266 24.3293 19.4451 24.7715 20.8985 24.7715C22.3518 24.7715 23.7703 24.3293 24.9631 23.5044Z" fill="#032640"/>
</g>
</svg>
