<svg width="134" height="31" viewBox="0 0 134 31" fill="none" xmlns="http://www.w3.org/2000/svg">
<g opacity="0.6">
<path d="M38.2258 9.47656H41.6022V23.1189H38.2258V9.47656ZM42.9486 17.9873C42.9486 14.6082 45.0523 12.5828 48.2079 12.5828C51.3635 12.5828 53.4672 14.6082 53.4672 17.9873C53.4672 21.3663 51.4371 23.4127 48.2079 23.4127C44.9787 23.4127 42.9486 21.4398 42.9486 17.9873ZM50.1223 17.9873C50.1223 16.1298 49.3965 15.0384 48.2395 15.0384C47.0824 15.0384 46.3672 16.0878 46.3672 17.9873C46.3672 19.8867 47.0824 20.9256 48.2395 20.9256C49.3965 20.9256 50.1433 19.8867 50.1433 17.9977L50.1223 17.9873ZM54.8136 23.822H58.0744C58.2228 24.1722 58.4821 24.4644 58.8126 24.6538C59.143 24.8433 59.5266 24.9197 59.9046 24.8714C61.1984 24.8714 61.8716 24.1788 61.8716 23.1503V21.2614H61.8821C61.6035 21.8496 61.1529 22.3398 60.5897 22.6676C60.0264 22.9954 59.3769 23.1454 58.7265 23.0979C56.2547 23.0979 54.6138 21.2194 54.6138 17.9873C54.6138 14.7551 56.181 12.7402 58.8212 12.7402C59.4882 12.7046 60.1499 12.8762 60.715 13.2315C61.2802 13.5867 61.721 14.108 61.9768 14.7236H61.8821V12.8242H65.2271V23.0454C65.2271 25.5115 63.0392 27.0541 59.8205 27.0541C56.8963 27.0436 55.024 25.7109 54.8347 23.8325L54.8136 23.822ZM61.8821 17.9873C61.8821 16.3397 61.1248 15.3008 59.9257 15.3008C58.7265 15.3008 57.9902 16.3502 57.9902 17.9873C57.9902 19.6243 58.716 20.5898 59.9257 20.5898C61.1353 20.5898 61.8821 19.6978 61.8821 17.9873ZM66.5629 17.9873C66.5629 14.6082 68.6666 12.5828 71.8222 12.5828C74.9778 12.5828 77.0815 14.6082 77.0815 17.9873C77.0815 21.3663 75.0409 23.4127 71.8222 23.4127C68.6035 23.4127 66.584 21.4398 66.584 17.9873H66.5629ZM73.7366 17.9873C73.7366 16.1298 73.0003 15.0384 71.8538 15.0384C70.7073 15.0384 69.9815 16.0878 69.9815 17.9873C69.9815 19.8867 70.6967 20.9256 71.8538 20.9256C73.0108 20.9256 73.7577 19.8867 73.7577 17.9977L73.7366 17.9873ZM78.449 10.3371C78.4343 9.99394 78.5228 9.65427 78.7032 9.36175C78.8836 9.06923 79.1476 8.83725 79.4613 8.69566C79.7749 8.55406 80.1238 8.50933 80.4631 8.5672C80.8025 8.62508 81.1167 8.78292 81.3654 9.02043C81.614 9.25793 81.7858 9.56423 81.8585 9.89992C81.9313 10.2356 81.9017 10.5853 81.7736 10.9041C81.6455 11.2229 81.4247 11.4962 81.1396 11.6887C80.8546 11.8813 80.5183 11.9843 80.174 11.9846C79.954 11.9902 79.7351 11.9521 79.5299 11.8726C79.3248 11.7931 79.1375 11.6737 78.979 11.5215C78.8205 11.3692 78.6939 11.187 78.6065 10.9855C78.5191 10.7839 78.4727 10.5671 78.47 10.3476L78.449 10.3371ZM78.449 12.8137H81.8675V23.1608H78.5016L78.449 12.8137ZM94.1638 17.9873C94.1638 21.3559 92.6491 23.3077 90.072 23.3077C89.4123 23.3483 88.7559 23.186 88.1916 22.8425C87.6273 22.4991 87.1822 21.9912 86.9165 21.3873H86.8533V26.4875H83.4769V12.8452H86.8323V14.6921H86.8954C87.1521 14.0764 87.5928 13.5546 88.1574 13.1978C88.7221 12.841 89.3833 12.6665 90.051 12.6982C92.7017 12.6773 94.2269 14.6187 94.2269 17.9977L94.1638 17.9873ZM90.7242 17.9873C90.7242 16.3502 89.9563 15.2903 88.7677 15.2903C87.5791 15.2903 86.8323 16.3397 86.8218 17.9873C86.8113 19.6348 87.5791 20.6737 88.7677 20.6737C89.9563 20.6737 90.7873 19.6978 90.7873 17.9977L90.7242 17.9873ZM99.928 12.5723C102.757 12.5723 104.514 13.9051 104.535 16.0459H101.453C101.453 15.3008 100.833 14.839 99.9069 14.839C98.9813 14.839 98.5395 15.1958 98.5395 15.731C98.5395 16.2662 98.9287 16.4341 99.7071 16.5915L101.874 17.0323C103.978 17.473 104.819 18.3126 104.819 19.8762C104.819 21.975 102.873 23.4022 99.9806 23.4022C97.088 23.4022 95.2051 22.017 95.0684 19.9077H98.3397C98.4343 20.6737 99.0444 21.125 100.033 21.125C101.022 21.125 101.485 20.8102 101.485 20.254C101.485 19.6978 101.169 19.6033 100.359 19.4354L98.4028 19.0262C96.3727 18.5959 95.3103 17.536 95.3103 15.9514C95.3734 13.8946 97.1405 12.5828 99.9911 12.5828L99.928 12.5723ZM116.127 23.1503H112.855V21.2089H112.792C112.609 21.8565 112.21 22.4225 111.662 22.8135C111.113 23.2046 110.447 23.3974 109.773 23.3602C109.265 23.3767 108.759 23.2858 108.288 23.0934C107.817 22.901 107.393 22.6115 107.042 22.2438C106.692 21.8762 106.423 21.4387 106.254 20.9601C106.084 20.4816 106.019 19.9727 106.06 19.4669V12.8242H109.437V18.7428C109.437 19.9601 110.078 20.6213 111.13 20.6213C111.377 20.6194 111.621 20.5648 111.844 20.461C112.068 20.3572 112.267 20.2068 112.428 20.0197C112.588 19.8327 112.707 19.6135 112.775 19.377C112.843 19.1404 112.86 18.8919 112.824 18.6484V12.8242H116.19L116.127 23.1503ZM117.757 12.8137H121.039V14.8076H121.112C121.294 14.1688 121.682 13.6081 122.217 13.2131C122.752 12.8182 123.403 12.6113 124.068 12.6248C124.736 12.5669 125.402 12.7595 125.935 13.1652C126.468 13.5708 126.83 14.1601 126.95 14.818H127.098C127.308 14.1566 127.731 13.583 128.302 13.1864C128.872 12.7898 129.558 12.5923 130.253 12.6248C130.715 12.6073 131.175 12.6872 131.604 12.8594C132.032 13.0316 132.42 13.2921 132.74 13.624C133.061 13.9559 133.308 14.3515 133.465 14.7852C133.622 15.2188 133.685 15.6806 133.651 16.1403V23.1608H130.253V17.0008C130.253 15.9514 129.759 15.3637 128.802 15.3637C128.589 15.3603 128.379 15.4026 128.184 15.4879C127.99 15.5732 127.817 15.6994 127.676 15.8579C127.535 16.0164 127.43 16.2034 127.368 16.4061C127.307 16.6088 127.29 16.8224 127.318 17.0323V23.1608H124.1V16.9693C124.1 15.9199 123.584 15.3637 122.659 15.3637C122.444 15.362 122.232 15.4061 122.036 15.4931C121.84 15.58 121.665 15.7078 121.522 15.8678C121.38 16.0278 121.273 16.2164 121.21 16.4209C121.146 16.6253 121.128 16.841 121.155 17.0533V23.1608H117.778L117.757 12.8137Z" fill="#032640"/>
<path d="M31.5463 10.3687C31.5464 8.28001 30.9142 6.24003 29.7326 4.51591C28.5509 2.79179 26.8748 1.46393 24.9239 0.706256C22.973 -0.0514219 20.8382 -0.203588 18.7991 0.269686C16.76 0.742961 14.9117 1.81961 13.4964 3.35861H0.369141V31H28.0857V18.0818C29.1736 17.1111 30.044 15.9224 30.6403 14.5933C31.2366 13.2643 31.5453 11.8248 31.5463 10.3687ZM26.2134 10.3687C26.2155 11.3695 25.9199 12.3485 25.3641 13.1817C24.8082 14.0148 24.0171 14.6648 23.0909 15.0492C22.1647 15.4337 21.1449 15.5354 20.1608 15.3414C19.1766 15.1474 18.2722 14.6665 17.5621 13.9595C16.852 13.2525 16.3681 12.3513 16.1716 11.3698C15.9752 10.3883 16.0749 9.37078 16.4584 8.44591C16.8418 7.52104 17.4916 6.73045 18.3256 6.17418C19.1596 5.61792 20.1402 5.321 21.1434 5.321C22.4862 5.321 23.7742 5.85247 24.7247 6.79878C25.6752 7.7451 26.2106 9.02897 26.2134 10.3687ZM22.7528 25.6795H5.70208V8.67911H10.8983C10.7979 9.23682 10.7451 9.80203 10.7405 10.3687C10.7433 13.1204 11.8402 15.7586 13.7905 17.7044C15.7408 19.6502 18.3852 20.7445 21.1434 20.7473C21.6826 20.7444 22.2208 20.6988 22.7528 20.6109V25.6795Z" fill="#032640"/>
</g>
</svg>
