<svg width="142" height="29" viewBox="0 0 142 29" fill="none" xmlns="http://www.w3.org/2000/svg">
<g opacity="0.6">
<path d="M21.29 12.7895C20.8935 13.1896 20.5899 13.6725 20.4007 14.2038C20.2115 14.7351 20.1415 15.3017 20.1956 15.8632L20.1768 15.8443C20.2324 16.5053 20.1436 17.1705 19.9164 17.7935C19.6893 18.4164 19.3293 18.9822 18.8617 19.4512C18.3941 19.9203 17.83 20.2813 17.209 20.5091C16.5879 20.7369 15.9247 20.826 15.2657 20.7703L15.2845 20.7891C14.4963 20.7155 13.7045 20.8876 13.0173 21.2819C12.3301 21.6761 11.7809 22.2734 11.4445 22.9922C11.1081 23.711 11.0009 24.5164 11.1376 25.2985C11.2742 26.0807 11.6481 26.8015 12.2081 27.3627C12.7682 27.924 13.4872 28.2983 14.2671 28.4346C15.047 28.571 15.8499 28.4628 16.5662 28.1247C17.2825 27.7866 17.8775 27.2352 18.2699 26.5456C18.6624 25.8559 18.8332 25.0617 18.7591 24.2711L18.779 24.29C18.7234 23.629 18.8122 22.9638 19.0394 22.3408C19.2665 21.7179 19.6264 21.1521 20.0941 20.6831C20.5617 20.214 21.1257 19.853 21.7468 19.6252C22.3679 19.3974 23.0311 19.3083 23.6901 19.364L23.6702 19.3452C24.3141 19.4032 24.9622 19.2973 25.5545 19.0373C26.1467 18.7772 26.6639 18.3715 27.0582 17.8575C27.4525 17.3436 27.711 16.7381 27.8098 16.0973C27.9087 15.4565 27.8447 14.801 27.6237 14.1916C27.4027 13.5821 27.032 13.0385 26.5458 12.6111C26.0596 12.1837 25.4737 11.8863 24.8424 11.7465C24.211 11.6067 23.5548 11.629 22.9343 11.8113C22.3139 11.9936 21.7494 12.3301 21.2931 12.7895H21.29Z" fill="#032640"/>
<path d="M13.5718 18.3146L13.5519 18.2957C14.112 18.3523 14.6776 18.2834 15.2079 18.0938C15.7381 17.9043 16.2198 17.599 16.618 17.1999C17.0162 16.8008 17.321 16.3179 17.5103 15.7862C17.6997 15.2545 17.7688 14.6872 17.7128 14.1254L17.7327 14.1442C17.6771 13.4833 17.7659 12.8181 17.9931 12.1951C18.2202 11.5721 18.5802 11.0064 19.0478 10.5374C19.5154 10.0683 20.0795 9.70729 20.7005 9.47947C21.3216 9.25165 21.9848 9.16252 22.6438 9.21832L22.6239 9.19943C23.4123 9.27369 24.2042 9.10222 24.8918 8.70842C25.5794 8.31461 26.1292 7.71764 26.4661 6.99894C26.803 6.28023 26.9107 5.47478 26.7744 4.69244C26.6382 3.91009 26.2646 3.18896 25.7047 2.62738C25.1449 2.06581 24.4259 1.69114 23.6459 1.55447C22.8659 1.41781 22.0629 1.5258 21.3463 1.86373C20.6298 2.20166 20.0346 2.75307 19.642 3.44275C19.2494 4.13242 19.0784 4.92679 19.1525 5.7175L19.1336 5.69756C19.1895 6.35857 19.1007 7.02383 18.8737 7.64689C18.6466 8.26995 18.2866 8.83577 17.819 9.30485C17.3513 9.77393 16.7872 10.135 16.166 10.3627C15.5448 10.5905 14.8816 10.6795 14.2226 10.6235L14.2414 10.6434C13.6813 10.5868 13.1157 10.6558 12.5854 10.8453C12.0551 11.0348 11.5735 11.3401 11.1753 11.7392C10.7771 12.1383 10.4723 12.6212 10.283 13.1529C10.0936 13.6847 10.0244 14.2519 10.0805 14.8138L10.0616 14.7949C10.1171 15.4558 10.0281 16.1209 9.80088 16.7438C9.57368 17.3667 9.21373 17.9324 8.74615 18.4014C8.27856 18.8704 7.71459 19.2314 7.09358 19.4593C6.47257 19.6872 5.80947 19.7764 5.15053 19.7208L5.16936 19.7397C4.38103 19.6654 3.58906 19.8369 2.90146 20.2307C2.21386 20.6245 1.66411 21.2215 1.3272 21.9402C0.990286 22.6589 0.882613 23.4643 1.01887 24.2467C1.15512 25.029 1.52866 25.7502 2.08855 26.3117C2.64843 26.8733 3.3674 27.248 4.14739 27.3846C4.92737 27.5213 5.7304 27.4133 6.44694 27.0754C7.16349 26.7375 7.75866 26.1861 8.15127 25.4964C8.54389 24.8067 8.71485 24.0123 8.64081 23.2216L8.66069 23.2405C8.60506 22.5795 8.69392 21.9144 8.92105 21.2914C9.14819 20.6684 9.50813 20.1027 9.97576 19.6336C10.4434 19.1646 11.0074 18.8036 11.6285 18.5757C12.2496 18.3479 12.9128 18.2588 13.5718 18.3146Z" fill="#032640"/>
<path d="M6.55987 16.2085C6.95642 15.8084 7.26003 15.3255 7.44902 14.7942C7.63802 14.2628 7.70774 13.6962 7.6532 13.1347L7.67308 13.1536C7.61741 12.4925 7.70631 11.8271 7.93356 11.204C8.16082 10.5808 8.52095 10.015 8.98881 9.54588C9.45668 9.07681 10.021 8.71582 10.6423 8.48815C11.2637 8.26047 11.9271 8.17159 12.5863 8.22771L12.5664 8.20882C13.3544 8.28287 14.1461 8.11131 14.8334 7.71753C15.5207 7.32376 16.0701 6.72693 16.4068 6.00845C16.7435 5.28997 16.8511 4.48481 16.7148 3.70276C16.5786 2.92071 16.2052 2.19985 15.6455 1.63848C15.0858 1.07711 14.3671 0.702559 13.5874 0.565901C12.8077 0.429243 12.005 0.537134 11.2887 0.874858C10.5724 1.21258 9.97733 1.7637 9.58474 2.45306C9.19215 3.14241 9.0211 3.93645 9.09493 4.72689L9.0761 4.708C9.13173 5.36897 9.04287 6.03416 8.81574 6.65713C8.5886 7.2801 8.22866 7.84585 7.76103 8.31488C7.29341 8.78392 6.72936 9.14495 6.10827 9.37277C5.48717 9.60059 4.82399 9.68971 4.16501 9.63392L4.18384 9.65281C3.53995 9.59489 2.8919 9.70093 2.29974 9.9611C1.70758 10.2213 1.19048 10.6271 0.796347 11.1411C0.402215 11.6551 0.143805 12.2606 0.0450646 12.9014C-0.0536755 13.5422 0.0104481 14.1977 0.231494 14.807C0.45254 15.4163 0.823356 15.9599 1.30958 16.3872C1.7958 16.8145 2.3817 17.1119 3.01298 17.2516C3.64427 17.3914 4.3005 17.369 4.92089 17.1867C5.54128 17.0043 6.10574 16.6679 6.56196 16.2085H6.55987Z" fill="#032640"/>
<path d="M38.9695 5.74163H42.0768V20.9087H38.9695V5.74163Z" fill="#032640"/>
<path d="M43.8367 15.7152C43.8323 14.6253 44.1506 13.5585 44.7511 12.6501C45.3517 11.7417 46.2075 11.0326 47.2103 10.6124C48.213 10.1923 49.3174 10.0801 50.3838 10.2901C51.4501 10.5 52.4303 11.0227 53.2003 11.7919C53.9702 12.5611 54.4952 13.5421 54.7088 14.6108C54.9225 15.6795 54.815 16.7878 54.4002 17.7952C53.9853 18.8026 53.2817 19.6639 52.3785 20.2699C51.4753 20.8759 50.413 21.1994 49.3263 21.1994C48.605 21.2077 47.8892 21.0716 47.2209 20.7992C46.5526 20.5268 45.9451 20.1235 45.434 19.6129C44.9229 19.1023 44.5184 18.4946 44.2441 17.8254C43.9698 17.1561 43.8313 16.4388 43.8367 15.7152ZM51.7086 15.7152C51.6957 15.2454 51.5449 14.7898 51.2752 14.4055C51.0056 14.0211 50.6289 13.7251 50.1924 13.5542C49.7558 13.3834 49.2788 13.3455 48.8208 13.4451C48.3629 13.5448 47.9444 13.7776 47.6177 14.1145C47.291 14.4515 47.0705 14.8775 46.9839 15.3394C46.8973 15.8013 46.9483 16.2785 47.1306 16.7115C47.313 17.1445 47.6185 17.5139 48.009 17.7737C48.3995 18.0334 48.8577 18.1719 49.3263 18.1719C49.6472 18.1805 49.9664 18.1223 50.2638 18.001C50.5612 17.8797 50.8303 17.6979 51.0541 17.4671C51.2779 17.2362 51.4516 16.9614 51.5643 16.6599C51.6769 16.3584 51.7261 16.0367 51.7086 15.7152Z" fill="#032640"/>
<path d="M67.2004 10.5207V20.3851C67.2004 23.8754 64.4864 25.3509 61.7316 25.3509C60.7617 25.4237 59.7905 25.2272 58.9246 24.7829C58.0587 24.3386 57.3314 23.6638 56.8226 22.8323L59.4738 21.2949C59.6877 21.7283 60.0284 22.0859 60.4504 22.3198C60.8724 22.5536 61.3556 22.6526 61.8352 22.6035C62.1418 22.6461 62.4539 22.6191 62.7487 22.5243C63.0434 22.4296 63.313 22.2696 63.5378 22.0562C63.7625 21.8427 63.9365 21.5814 64.0469 21.2914C64.1574 21.0014 64.2014 20.6902 64.1757 20.3809V19.4312C63.8118 19.8777 63.3487 20.2325 62.8234 20.4671C62.2981 20.7016 61.7253 20.8094 61.151 20.7818C59.7844 20.7385 58.4882 20.1636 57.5367 19.1787C56.5853 18.1938 56.0532 16.8762 56.0532 15.5048C56.0532 14.1334 56.5853 12.8158 57.5367 11.8309C58.4882 10.846 59.7844 10.2711 61.151 10.2279C61.7253 10.2002 62.2981 10.308 62.8234 10.5426C63.3487 10.7771 63.8118 11.1319 64.1757 11.5785V10.5186L67.2004 10.5207ZM64.1767 15.5064C64.1976 15.0041 64.0682 14.507 63.805 14.0792C63.5419 13.6513 63.1571 13.3122 62.7002 13.1055C62.2433 12.8989 61.7351 12.8341 61.2412 12.9195C60.7473 13.0049 60.2902 13.2367 59.9287 13.5849C59.5671 13.9331 59.3178 14.3819 59.2127 14.8734C59.1076 15.365 59.1516 15.8768 59.339 16.3431C59.5264 16.8094 59.8486 17.2087 60.2642 17.4898C60.6798 17.7708 61.1697 17.9206 61.671 17.92C61.9974 17.9429 62.3251 17.8969 62.6328 17.785C62.9405 17.6732 63.2214 17.4979 63.4574 17.2705C63.6935 17.0432 63.8795 16.7687 64.0033 16.4649C64.1272 16.161 64.1863 15.8345 64.1767 15.5064Z" fill="#032640"/>
<path d="M68.9602 15.7152C68.9558 14.6253 69.2741 13.5585 69.8746 12.6501C70.4752 11.7417 71.331 11.0326 72.3337 10.6124C73.3365 10.1923 74.4409 10.0801 75.5073 10.2901C76.5736 10.5 77.5538 11.0227 78.3238 11.7919C79.0937 12.5611 79.6187 13.5421 79.8323 14.6108C80.046 15.6795 79.9385 16.7878 79.5237 17.7952C79.1088 18.8026 78.4052 19.6639 77.502 20.2699C76.5987 20.8759 75.5365 21.1994 74.4498 21.1994C73.7285 21.2077 73.0127 21.0716 72.3444 20.7992C71.6761 20.5268 71.0686 20.1235 70.5575 19.6129C70.0464 19.1023 69.6419 18.4946 69.3676 17.8254C69.0933 17.1561 68.9548 16.4388 68.9602 15.7152ZM76.8321 15.7152C76.8192 15.2454 76.6684 14.7898 76.3987 14.4055C76.1291 14.0211 75.7524 13.7251 75.3158 13.5542C74.8793 13.3834 74.4023 13.3455 73.9443 13.4451C73.4864 13.5448 73.0679 13.7776 72.7412 14.1145C72.4145 14.4515 72.194 14.8775 72.1074 15.3394C72.0208 15.8013 72.0718 16.2785 72.2542 16.7115C72.4365 17.1445 72.742 17.5139 73.1325 17.7737C73.523 18.0334 73.9812 18.1719 74.4498 18.1719C74.7707 18.1805 75.0899 18.1223 75.3873 18.001C75.6847 17.8797 75.9538 17.6979 76.1776 17.4671C76.4014 17.2362 76.5751 16.9614 76.6878 16.6599C76.8004 16.3584 76.8496 16.0367 76.8321 15.7152Z" fill="#032640"/>
<path d="M81.3885 7.73657C81.3885 7.36671 81.4979 7.00515 81.7028 6.69763C81.9076 6.3901 82.1988 6.15041 82.5395 6.00887C82.8801 5.86733 83.255 5.8303 83.6167 5.90245C83.9783 5.97461 84.3105 6.15272 84.5713 6.41425C84.832 6.67578 85.0096 7.00898 85.0815 7.37174C85.1535 7.73449 85.1166 8.1105 84.9754 8.4522C84.8343 8.79391 84.5954 9.08597 84.2888 9.29145C83.9822 9.49693 83.6217 9.60661 83.253 9.60661C82.76 9.60169 82.2886 9.40309 81.94 9.05345C81.5914 8.70381 81.3934 8.23101 81.3885 7.73657ZM81.7024 10.5206H84.8108V20.9098H81.6982L81.7024 10.5206Z" fill="#032640"/>
<path d="M98.228 15.7152C98.2639 16.4018 98.1641 17.0888 97.9344 17.7366C97.7047 18.3844 97.3496 18.9802 96.8895 19.4899C96.4294 19.9996 95.8734 20.413 95.2535 20.7064C94.6335 20.9997 93.9619 21.1673 93.2771 21.1994C92.7013 21.2309 92.1257 21.1335 91.592 20.9143C91.0584 20.695 90.5801 20.3594 90.1917 19.9317V25.0644H87.0844V10.5206H90.1917V11.4966C90.5802 11.0692 91.0586 10.7339 91.5922 10.5148C92.1259 10.2958 92.7014 10.1985 93.2771 10.2299C93.962 10.2619 94.6338 10.4294 95.2539 10.7228C95.874 11.0162 96.4301 11.4297 96.8902 11.9395C97.3503 12.4493 97.7054 13.0454 97.935 13.6934C98.1646 14.3414 98.2642 15.0285 98.228 15.7152ZM95.1206 15.7152C95.1085 15.229 94.9536 14.7572 94.6754 14.3588C94.3973 13.9604 94.0081 13.6532 93.5567 13.4755C93.1053 13.2979 92.6117 13.2577 92.1376 13.3601C91.6636 13.4625 91.2302 13.7028 90.8916 14.051C90.5531 14.3992 90.3245 14.8398 90.2344 15.3177C90.1443 15.7956 90.1967 16.2896 90.3851 16.7377C90.5735 17.1859 90.8895 17.5684 91.2936 17.8373C91.6976 18.1062 92.1718 18.2496 92.6567 18.2495C92.9896 18.2644 93.3219 18.2085 93.6317 18.0855C93.9416 17.9626 94.222 17.7753 94.4547 17.536C94.6873 17.2967 94.8669 17.0108 94.9817 16.697C95.0965 16.3832 95.1438 16.0486 95.1206 15.7152Z" fill="#032640"/>
<path d="M107.817 17.792C107.817 20.1815 105.746 21.1994 103.509 21.1994C102.606 21.2815 101.698 21.0898 100.904 20.6491C100.11 20.2083 99.4661 19.5388 99.0555 18.727L101.748 17.1896C101.856 17.5649 102.09 17.8913 102.41 18.1143C102.73 18.3374 103.117 18.4437 103.505 18.4154C104.25 18.4154 104.624 18.1866 104.624 17.7721C104.624 16.6282 99.5274 17.2316 99.5274 13.6374C99.5274 11.3717 101.434 10.23 103.588 10.23C104.398 10.2043 105.2 10.3969 105.91 10.7879C106.62 11.1788 107.213 11.7537 107.626 12.4526L104.975 13.8861C104.859 13.614 104.665 13.3822 104.419 13.2197C104.172 13.0571 103.883 12.971 103.588 12.9721C103.049 12.9721 102.717 13.182 102.717 13.5535C102.722 14.7382 107.817 13.948 107.817 17.792Z" fill="#032640"/>
<path d="M119.168 10.5207V20.9098H116.06V19.9328C115.702 20.3639 115.247 20.7036 114.732 20.924C114.217 21.1443 113.658 21.2391 113.099 21.2005C111.007 21.2005 109.228 19.7051 109.228 16.8979V10.5207H112.336V16.4414C112.31 16.6889 112.338 16.939 112.418 17.1745C112.498 17.4099 112.628 17.625 112.8 17.8048C112.971 17.9846 113.18 18.1247 113.411 18.2155C113.642 18.3063 113.89 18.3455 114.137 18.3304C115.277 18.3304 116.063 17.6661 116.063 16.1906V10.5238L119.168 10.5207Z" fill="#032640"/>
<path d="M136.985 14.5305V20.9088H133.878V14.8002C133.878 13.7613 133.381 13.097 132.387 13.097C131.351 13.097 130.771 13.8242 130.771 15.05V20.9088H127.664V14.8002C127.664 13.7613 127.167 13.097 126.172 13.097C125.137 13.097 124.557 13.8242 124.557 15.05V20.9088H121.45V10.5197H124.557V11.4746C124.879 11.051 125.302 10.715 125.787 10.4974C126.272 10.2798 126.803 10.1875 127.333 10.229C127.864 10.2029 128.394 10.3154 128.869 10.5556C129.345 10.7958 129.75 11.1554 130.046 11.5995C130.39 11.135 130.846 10.7656 131.371 10.5259C131.897 10.2862 132.474 10.184 133.049 10.229C135.427 10.23 136.985 11.9332 136.985 14.5305Z" fill="#032640"/>
<path d="M139.613 10.4567C140.887 10.4567 141.919 9.42115 141.919 8.14378C141.919 6.8664 140.887 5.83088 139.613 5.83088C138.34 5.83088 137.307 6.8664 137.307 8.14378C137.307 9.42115 138.34 10.4567 139.613 10.4567Z" fill="#032640"/>
</g>
</svg>
