<svg width="100" height="92" viewBox="0 0 100 92" fill="none" xmlns="http://www.w3.org/2000/svg">
<g clip-path="url(#clip0_136_2792)">
<path d="M37.527 0L28.3125 6.3181L29.4318 24.7744H37.2072L37.4562 5.53005L37.527 0Z" fill="white"/>
<path d="M36.5814 73.2607H30.9395L31.6042 90.1775L36.3416 91.6257L36.3804 91.6234V88.7271L36.5814 73.2607Z" fill="white"/>
<path d="M36.3809 88.7271V91.6235L88.0792 89.65L85.578 87.0186L36.3809 88.7271Z" fill="white"/>
<path d="M37.5269 0L37.4561 5.53005L89.264 12.506L93.8712 8.03125L37.5269 0Z" fill="white"/>
<path d="M37.4561 5.53005L37.5269 0L37.4561 5.53005Z" fill="white"/>
<path d="M93.8712 8.03125L89.264 12.506L87.1396 55.4421H90.5066L93.8712 8.03125Z" fill="white"/>
<path d="M85.5771 87.0191L88.0784 89.6505L89.2684 72.8799H86.2784L85.5771 87.0191Z" fill="white"/>
<path d="M4.36967 57.1094L0 69.1814H3.0791L3.80091 67.0548H8.30764L9.02944 69.1859H12.1428L7.77313 57.1094H4.36967ZM4.57525 64.7797L6.05313 60.3598L7.55157 64.7706L4.57525 64.7797Z" fill="white"/>
<path d="M20.0002 64.7962C20.0354 65.3407 19.8568 65.8775 19.5023 66.2924C19.3255 66.4745 19.1116 66.6165 18.8751 66.7087C18.6387 66.8009 18.3851 66.8412 18.1317 66.8269C17.883 66.8387 17.6347 66.7971 17.4034 66.7049C17.1721 66.6127 16.9633 66.4721 16.7909 66.2924C16.4364 65.8775 16.2577 65.3407 16.293 64.7962V59.5859H13.3806V65.1914C13.3607 65.9457 13.5171 66.6942 13.8374 67.3773C14.1224 67.9695 14.5772 68.4633 15.144 68.7958C15.7365 69.1299 16.4078 69.2987 17.0879 69.2847C17.6754 69.2922 18.2564 69.1599 18.7827 68.8986C19.2654 68.6639 19.6816 68.3121 19.9934 67.8753V69.1819H22.9354V59.5882H20.0002V64.7962Z" fill="white"/>
<path d="M28.6687 66.5004C28.5924 66.4176 28.5345 66.3197 28.4987 66.213C28.4629 66.1064 28.45 65.9933 28.4608 65.8813V62.0302H30.3887V59.5861H28.4608V57.2471H25.5211V59.5861H24.3516V62.0302H25.5211V65.8494C25.5211 67.0311 25.8188 67.8823 26.4142 68.4031C27.0096 68.9239 27.8411 69.1843 28.9085 69.1843H30.4047V66.69H29.3562C29.1116 66.7129 28.867 66.6455 28.6687 66.5004Z" fill="white"/>
<path d="M38.987 60.049C38.1965 59.6539 37.3249 59.4482 36.4412 59.4482C35.5575 59.4482 34.686 59.6539 33.8955 60.049C33.1474 60.4441 32.5271 61.0438 32.107 61.7781C31.6802 62.5818 31.457 63.4779 31.457 64.3878C31.457 65.2978 31.6802 66.1938 32.107 66.9975C32.5205 67.7283 33.1349 68.3252 33.8772 68.7175C34.659 69.1261 35.5307 69.3326 36.4127 69.3183C37.3012 69.3315 38.1792 69.1252 38.9687 68.7175C39.7218 68.3246 40.3476 67.7257 40.7732 66.9907C41.2059 66.1901 41.4324 65.2944 41.4324 64.3844C41.4324 63.4744 41.2059 62.5787 40.7732 61.7781C40.3537 61.0441 39.7342 60.4444 38.987 60.049ZM37.8449 66.1546C37.6625 66.3532 37.4402 66.511 37.1926 66.6176C36.945 66.7243 36.6777 66.7775 36.4081 66.7737C36.1436 66.7796 35.881 66.7272 35.639 66.6202C35.397 66.5132 35.1816 66.3543 35.0079 66.1546C34.6363 65.742 34.4498 65.1519 34.4483 64.3844C34.4483 63.6032 34.6379 63.0139 35.017 62.605C35.1997 62.4107 35.4201 62.2559 35.6649 62.15C35.9096 62.0442 36.1735 61.9896 36.4401 61.9896C36.7068 61.9896 36.9706 62.0442 37.2153 62.15C37.4601 62.2559 37.6805 62.4107 37.8632 62.605C38.2469 63.0184 38.4388 63.6078 38.4388 64.3775C38.4388 65.1473 38.2378 65.7412 37.8426 66.1546H37.8449Z" fill="white"/>
<path d="M55.2388 59.4825C54.58 59.4772 53.932 59.6501 53.3634 59.9828C52.8073 60.2926 52.3365 60.7351 51.9929 61.2711C51.6852 60.7109 51.223 60.251 50.6612 59.9462C50.0651 59.6333 49.3996 59.4761 48.7265 59.4894C48.1617 59.4808 47.6023 59.6011 47.091 59.8412C46.6306 60.0615 46.2296 60.3889 45.9215 60.796V59.5853H42.9932V69.179H45.9329V63.971C45.9003 63.446 46.0768 62.9294 46.424 62.5342C46.7983 62.2084 47.2778 62.0289 47.774 62.0289C48.2702 62.0289 48.7497 62.2084 49.124 62.5342C49.4706 62.9296 49.6463 63.4463 49.6128 63.971V69.1813H52.5366V63.971C52.5039 63.446 52.6805 62.9294 53.0277 62.5342C53.4019 62.2084 53.8814 62.0289 54.3776 62.0289C54.8738 62.0289 55.3533 62.2084 55.7276 62.5342C56.0748 62.9294 56.2514 63.446 56.2187 63.971V69.1813H59.1379V63.5758C59.1379 62.2921 58.7854 61.2886 58.0803 60.5652C57.3752 59.8419 56.4281 59.481 55.2388 59.4825Z" fill="white"/>
<path d="M67.818 60.9446C67.53 60.484 67.1227 60.1099 66.6393 59.8619C66.087 59.5747 65.4708 59.4324 64.8485 59.4485C64.0895 59.44 63.3437 59.6484 62.6991 60.0492C62.0412 60.4691 61.5142 61.065 61.1778 61.7692C60.8089 62.587 60.6182 63.4738 60.6182 64.3709C60.6182 65.268 60.8089 66.1549 61.1778 66.9726C61.5138 67.6814 62.0406 68.2825 62.6991 68.7086C63.3351 69.1147 64.0757 69.3266 64.8303 69.3185C65.4491 69.3323 66.0616 69.1909 66.6119 68.9074C67.0968 68.6544 67.5082 68.2807 67.8066 67.8224V69.1815H70.7463V59.5878H67.818V60.9446ZM67.2058 66.1206C67.0148 66.3225 66.7846 66.4832 66.5293 66.5931C66.274 66.703 65.999 66.7597 65.7211 66.7597C65.4432 66.7597 65.1682 66.703 64.9129 66.5931C64.6576 66.4832 64.4274 66.3225 64.2364 66.1206C63.8116 65.6417 63.5925 65.0148 63.6265 64.3755C63.6086 64.0616 63.6533 63.7473 63.758 63.4508C63.8627 63.1544 64.0253 62.8817 64.2364 62.6487C64.4283 62.4483 64.6587 62.2888 64.9139 62.1799C65.1691 62.0709 65.4436 62.0148 65.7211 62.0148C65.9985 62.0148 66.2731 62.0709 66.5283 62.1799C66.7834 62.2888 67.0139 62.4483 67.2058 62.6487C67.602 63.1409 67.818 63.7539 67.818 64.3858C67.818 65.0177 67.602 65.6306 67.2058 66.1229V66.1206Z" fill="white"/>
<path d="M76.4975 66.5004C76.4217 66.4173 76.3641 66.3194 76.3283 66.2128C76.2925 66.1062 76.2793 65.9933 76.2896 65.8813V62.0302H78.2175V59.5861H76.2896V57.2471H73.3453V59.5861H72.1758V62.0302H73.3453V65.8494C73.3453 67.0311 73.6438 67.8823 74.2407 68.4031C74.5728 68.6847 74.9627 68.8897 75.3828 69.0038C75.8232 69.1291 76.2795 69.1899 76.7373 69.1843H78.2335V66.69H77.1828C76.9389 66.7124 76.6952 66.6449 76.4975 66.5004Z" fill="white"/>
<path d="M86.6053 60.033C85.8423 59.633 84.9907 59.4319 84.1293 59.4482C83.2491 59.4312 82.3791 59.6379 81.6006 60.049C80.8748 60.4432 80.2801 61.0411 79.8898 61.769C79.4677 62.5749 79.2578 63.4749 79.2799 64.3844C79.2583 65.2942 79.4715 66.1941 79.8989 66.9975C80.2925 67.7254 80.8893 68.323 81.6166 68.7175C82.3895 69.1281 83.2543 69.3348 84.1293 69.3183C84.8571 69.3296 85.5787 69.1831 86.2444 68.8888C86.8525 68.6199 87.3903 68.2142 87.816 67.7033C88.2314 67.2086 88.529 66.6259 88.6862 65.9993H85.5546C85.4281 66.2939 85.213 66.5418 84.9391 66.7084C84.6652 66.875 84.3462 66.9521 84.0265 66.929C83.5648 66.941 83.117 66.7712 82.7793 66.4562C82.4174 66.091 82.211 65.5997 82.2037 65.0856H88.8576C88.8915 64.8006 88.909 64.5138 88.9101 64.2268C88.9293 63.3453 88.7191 62.474 88.3002 61.6982C87.9063 60.9923 87.3181 60.4143 86.6053 60.033ZM82.2197 63.4593C82.2705 62.9889 82.4944 62.5541 82.8478 62.2395C83.1967 61.9478 83.6404 61.7942 84.095 61.8078C84.5663 61.7948 85.0255 61.9577 85.3833 62.2647C85.5542 62.4137 85.6894 62.5993 85.7787 62.8077C85.8681 63.016 85.9094 63.2419 85.8995 63.4684L82.2197 63.4593Z" fill="white"/>
<path d="M98.9954 60.5748C98.3269 59.8484 97.4299 59.4844 96.3046 59.4829C95.7164 59.4734 95.134 59.6 94.6029 59.853C94.1222 60.0794 93.7077 60.4255 93.3991 60.858V59.5857H90.457V69.1793H93.4014V63.9714C93.3671 63.427 93.5456 62.8905 93.8993 62.4752C94.2621 62.1334 94.7417 61.9431 95.2401 61.9431C95.7386 61.9431 96.2182 62.1334 96.581 62.4752C96.9355 62.8902 97.1148 63.4266 97.0812 63.9714V69.1816H100.005V63.5762C100.003 62.3031 99.6669 61.3027 98.9954 60.5748Z" fill="white"/>
<path d="M84.8967 42.1045L78.5877 42.2004L78.5283 44.2859L84.7939 44.19L84.8967 42.1045Z" fill="white"/>
<path d="M45.0555 21.7977C45.14 18.44 45.1925 16.2106 45.1925 16.2106L74.0625 20.1326L73.0712 55.4417H75.3919L76.4313 18.1133L42.8535 13.5449C42.8535 13.5449 42.9289 16.9712 43.0431 21.7886L45.0555 21.7977Z" fill="#F3763D"/>
<path d="M81.2947 29.0049L79.3988 28.8221C79.3417 28.8168 79.2841 28.8233 79.2296 28.8411C79.1751 28.859 79.1248 28.8879 79.082 28.9261C79.0391 28.9642 79.0046 29.0108 78.9805 29.0628C78.9564 29.1149 78.9433 29.1714 78.942 29.2287L78.9054 30.5536C78.9023 30.6631 78.9421 30.7696 79.0164 30.8503C79.0906 30.9309 79.1934 30.9794 79.3029 30.9853L81.1896 31.0858C81.2451 31.0888 81.3006 31.0808 81.353 31.0622C81.4053 31.0436 81.4534 31.0147 81.4944 30.9773C81.5355 30.9398 81.5686 30.8946 81.592 30.8442C81.6154 30.7938 81.6285 30.7393 81.6305 30.6838L81.6807 29.4411C81.6841 29.3329 81.646 29.2275 81.5743 29.1464C81.5025 29.0653 81.4025 29.0147 81.2947 29.0049Z" fill="#F3763D"/>
<path d="M81.1481 32.4543L79.2888 32.3561C79.2326 32.353 79.1764 32.3612 79.1235 32.3803C79.0706 32.3993 79.0221 32.4287 78.9808 32.4669C78.9395 32.505 78.9062 32.551 78.883 32.6022C78.8598 32.6534 78.8471 32.7088 78.8456 32.765L78.8068 34.188C78.8053 34.2432 78.8147 34.2982 78.8344 34.3498C78.8541 34.4013 78.8838 34.4485 78.9218 34.4886C78.9598 34.5287 79.0053 34.5609 79.0557 34.5834C79.1061 34.6059 79.1605 34.6183 79.2157 34.6197L81.059 34.6746C81.1697 34.6777 81.2772 34.6369 81.358 34.5612C81.4389 34.4855 81.4866 34.3809 81.4907 34.2703L81.5456 32.8997C81.5518 32.788 81.5135 32.6783 81.4389 32.5948C81.3644 32.5113 81.2598 32.4608 81.1481 32.4543Z" fill="#F3763D"/>
<path d="M85.3009 25.8964L83.6563 25.668C83.5982 25.66 83.5391 25.6642 83.4827 25.6804C83.4263 25.6966 83.374 25.7245 83.329 25.7621C83.2841 25.7998 83.2475 25.8464 83.2216 25.899C83.1958 25.9517 83.1812 26.0091 83.1789 26.0677L83.1264 27.4063C83.1218 27.5137 83.1585 27.6188 83.229 27.7C83.2996 27.7811 83.3985 27.8321 83.5055 27.8426L85.141 28.0002C85.1973 28.0052 85.2541 27.9987 85.3079 27.9813C85.3616 27.9638 85.4113 27.9357 85.454 27.8986C85.4966 27.8615 85.5314 27.8162 85.5561 27.7653C85.5808 27.7145 85.595 27.6592 85.5979 27.6027L85.6595 26.3281C85.664 26.2245 85.6297 26.1229 85.5635 26.0431C85.4972 25.9634 85.4036 25.9111 85.3009 25.8964Z" fill="#F3763D"/>
<path d="M81.4566 25.373L79.5196 25.1104C79.461 25.1023 79.4013 25.1067 79.3445 25.1233C79.2877 25.1399 79.235 25.1684 79.1899 25.2068C79.1448 25.2452 79.1084 25.2926 79.0829 25.3461C79.0575 25.3995 79.0436 25.4578 79.0423 25.5169L79.0011 27.0154C78.9983 27.1219 79.0357 27.2255 79.1061 27.3056C79.1764 27.3857 79.2743 27.4362 79.3803 27.4471L81.3036 27.6321C81.3603 27.6371 81.4174 27.6305 81.4715 27.6128C81.5255 27.5951 81.5754 27.5666 81.6181 27.529C81.6609 27.4914 81.6955 27.4455 81.72 27.3941C81.7444 27.3428 81.7582 27.287 81.7604 27.2301L81.8153 25.807C81.8198 25.7032 81.7856 25.6013 81.7194 25.5211C81.6531 25.441 81.5595 25.3882 81.4566 25.373Z" fill="#F3763D"/>
<path d="M84.7624 36.1546L83.2068 36.1066C83.0959 36.1035 82.9882 36.1442 82.907 36.2198C82.8258 36.2955 82.7776 36.4 82.7728 36.5109L82.718 37.9066C82.7162 37.9627 82.7255 38.0187 82.7455 38.0713C82.7654 38.1238 82.7956 38.1719 82.8343 38.2126C82.873 38.2534 82.9193 38.2861 82.9707 38.3089C83.0221 38.3316 83.0775 38.3439 83.1337 38.3451L84.6778 38.3634C84.7866 38.3647 84.8917 38.3238 84.9709 38.2492C85.0501 38.1747 85.0974 38.0723 85.1027 37.9637L85.1689 36.5931C85.1714 36.5376 85.1628 36.4821 85.1436 36.4298C85.1244 36.3776 85.0951 36.3297 85.0573 36.2889C85.0195 36.2481 84.9739 36.2152 84.9233 36.1922C84.8727 36.1691 84.818 36.1563 84.7624 36.1546Z" fill="#F3763D"/>
<path d="M80.9976 36.04L79.1702 35.9875C79.115 35.9859 79.06 35.9953 79.0085 36.015C78.9569 36.0348 78.9097 36.0645 78.8696 36.1024C78.8295 36.1404 78.7973 36.1859 78.7748 36.2363C78.7523 36.2868 78.74 36.3411 78.7385 36.3963L78.6974 37.8628C78.6962 37.9185 78.706 37.9739 78.7262 38.0257C78.7465 38.0776 78.7768 38.125 78.8155 38.1651C78.8541 38.2052 78.9003 38.2373 78.9513 38.2595C79.0024 38.2817 79.0574 38.2936 79.1131 38.2945L80.9153 38.3173C81.0249 38.3186 81.1306 38.2771 81.2099 38.2015C81.2893 38.126 81.336 38.0225 81.3402 37.913L81.3973 36.4786C81.4017 36.3676 81.3622 36.2594 81.2873 36.1773C81.2125 36.0952 81.1084 36.0459 80.9976 36.04Z" fill="#F3763D"/>
<path d="M85.1164 29.3657L83.5015 29.2104C83.4448 29.2057 83.3879 29.2125 83.3339 29.2304C83.28 29.2483 83.2302 29.2768 83.1876 29.3143C83.145 29.3519 83.1103 29.3976 83.0857 29.4488C83.0612 29.5 83.0472 29.5557 83.0446 29.6124L83.0012 30.7545C82.9975 30.8647 83.0369 30.972 83.1112 31.0535C83.1854 31.1351 83.2886 31.1843 83.3987 31.1908L84.9976 31.2753C85.053 31.2784 85.1085 31.2705 85.1608 31.252C85.2131 31.2336 85.2613 31.2049 85.3024 31.1678C85.3436 31.1306 85.3771 31.0857 85.4008 31.0355C85.4245 30.9854 85.4381 30.931 85.4407 30.8756L85.4933 29.802C85.4968 29.6952 85.46 29.591 85.3902 29.5102C85.3203 29.4293 85.2226 29.3777 85.1164 29.3657Z" fill="#F3763D"/>
<path d="M84.9491 32.6568L83.3501 32.5631C83.2946 32.5601 83.2389 32.5681 83.1865 32.5867C83.134 32.6053 83.0858 32.6341 83.0445 32.6715C83.0033 32.7089 82.9699 32.7541 82.9463 32.8045C82.9227 32.855 82.9093 32.9095 82.907 32.9652L82.8568 34.2946C82.8546 34.35 82.8635 34.4052 82.8828 34.4572C82.9021 34.5091 82.9315 34.5568 82.9693 34.5973C83.0071 34.6379 83.0525 34.6705 83.103 34.6935C83.1534 34.7164 83.2079 34.7291 83.2633 34.7308L84.8394 34.7788C84.95 34.7819 85.0574 34.7416 85.1385 34.6664C85.2197 34.5913 85.2681 34.4873 85.2734 34.3768L85.3351 33.0862C85.3384 32.9787 85.3001 32.8741 85.2282 32.7941C85.1563 32.7142 85.0563 32.665 84.9491 32.6568Z" fill="#F3763D"/>
<path d="M20.2631 29.1377V52.537H14.5526V42.9046H5.69908V52.537H0V29.1377H5.69908V38.3042H14.5641V29.1377H20.2631Z" fill="white"/>
<path d="M42.258 52.5363L40.0926 50.4372C37.9363 52.0742 35.359 52.8927 32.3606 52.8927C30.7499 52.9291 29.1494 52.628 27.662 52.0087C26.4141 51.4914 25.343 50.6234 24.5783 49.5098C23.8477 48.3892 23.4734 47.0737 23.5048 45.7363C23.4901 44.3204 23.9024 42.933 24.688 41.7549C25.4768 40.5671 26.66 39.5948 28.2376 38.838C27.7177 38.2241 27.3011 37.5298 27.0041 36.7822C26.7543 36.0935 26.6305 35.3654 26.6387 34.6328C26.6278 33.5592 26.9285 32.5055 27.5044 31.5994C28.1191 30.6573 28.9911 29.9113 30.017 29.4499C31.2472 28.9063 32.5831 28.6433 33.9276 28.6802C35.4595 28.6802 36.7592 28.9581 37.8267 29.5139C38.8281 30.0078 39.6628 30.7845 40.2274 31.7478C40.7595 32.6786 41.0132 33.7425 40.9583 34.8132H35.5927C35.6189 34.5633 35.5917 34.3107 35.513 34.0721C35.4342 33.8334 35.3057 33.6142 35.1359 33.429C34.9663 33.2658 34.7652 33.1389 34.5448 33.056C34.3245 32.9731 34.0896 32.936 33.8545 32.947C33.3685 32.9281 32.8929 33.091 32.5205 33.4039C32.348 33.5515 32.2108 33.7358 32.1187 33.9433C32.0266 34.1507 31.982 34.3762 31.9883 34.6031C32.007 35.1239 32.1648 35.6302 32.4451 36.0695C32.8493 36.7108 33.3252 37.304 33.8636 37.8375L39.5627 43.4018C39.6061 43.2922 39.6678 43.1574 39.7454 43.0021C39.8231 42.8468 39.9053 42.6686 39.9944 42.4699L41.2279 40.3684H46.9269L45.328 43.2693C44.7399 44.5646 44.0526 45.8124 43.2722 47.0017L48.9051 52.5341L42.258 52.5363ZM36.5932 47.036L31.3944 42.0107C29.7954 42.8331 28.996 43.9439 28.996 45.3434C28.9897 45.7475 29.0748 46.1478 29.2448 46.5145C29.4149 46.8811 29.6656 47.2046 29.9782 47.4608C30.6345 48.0273 31.5177 48.3106 32.6278 48.3106C34.0532 48.3287 35.4454 47.8812 36.5932 47.036Z" fill="white"/>
<path d="M54.8232 51.9355C53.5321 51.429 52.4069 50.5742 51.5728 49.4663C50.7438 48.3218 50.2948 46.946 50.2891 45.5329H56.3559C56.4427 46.3993 56.7427 47.0602 57.2559 47.5155C57.8118 47.9879 58.5257 48.2327 59.2546 48.2008C60.0997 48.2008 60.7644 48.0067 61.2532 47.6183C61.4947 47.426 61.687 47.1791 61.8145 46.898C61.942 46.6169 62.0009 46.3095 61.9865 46.0011C61.9944 45.735 61.9468 45.4701 61.8465 45.2235C61.7461 44.9769 61.5954 44.7539 61.404 44.5689C60.9881 44.172 60.5026 43.8553 59.9718 43.6347C59.1819 43.3132 58.3752 43.0349 57.5551 42.801C56.289 42.4287 55.0527 41.9614 53.857 41.403C52.8817 40.9204 52.0359 40.2116 51.39 39.3358C50.7002 38.4221 50.3561 37.2336 50.3576 35.7702C50.3576 33.5926 51.1456 31.8871 52.7217 30.6536C54.2978 29.4201 56.3536 28.8041 58.8891 28.8057C61.4657 28.8057 63.5428 29.4216 65.1204 30.6536C66.698 31.8855 67.5424 33.6025 67.6536 35.8045H61.4862C61.4798 35.4653 61.4023 35.1313 61.2587 34.824C61.1151 34.5167 60.9086 34.2429 60.6525 34.0205C60.0978 33.5717 59.3987 33.3402 58.6858 33.3695C58.0818 33.3411 57.4887 33.5372 57.0206 33.92C56.8038 34.1201 56.6343 34.366 56.5244 34.6398C56.4146 34.9136 56.3671 35.2085 56.3856 35.5029C56.382 35.8676 56.4799 36.226 56.6683 36.5382C56.8566 36.8504 57.1281 37.1041 57.4523 37.2709C58.1635 37.6912 59.2743 38.148 60.785 38.6414C62.0435 39.0475 63.2742 39.5351 64.4694 40.101C65.4308 40.5817 66.2687 41.2773 66.918 42.134C67.6079 43.0233 67.9528 44.1654 67.9528 45.5603C67.9658 46.8429 67.6132 48.1026 66.9363 49.1922C66.2169 50.3183 65.1949 51.2191 63.9874 51.7916C62.6961 52.4357 61.1733 52.7578 59.419 52.7578C57.8481 52.7865 56.2867 52.5072 54.8232 51.9355Z" fill="white"/>
</g>
<defs>
<clipPath id="clip0_136_2792">
<rect width="100" height="91.6261" fill="white"/>
</clipPath>
</defs>
</svg>
