<svg width="65" height="60" viewBox="0 0 65 60" fill="none" xmlns="http://www.w3.org/2000/svg">
<g clip-path="url(#clip0_136_2822)">
<path d="M24.3927 0L18.4033 4.10676L19.1308 16.1034H24.1849L24.3467 3.59453L24.3927 0Z" fill="#033960"/>
<path d="M23.7776 47.6198H20.1104L20.5424 58.6157L23.6217 59.557L23.647 59.5555V57.6729L23.7776 47.6198Z" fill="#033960"/>
<path d="M23.6475 57.6729V59.5555L57.2514 58.2727L55.6256 56.5623L23.6475 57.6729Z" fill="#F28529"/>
<path d="M24.3927 0L24.3467 3.59453L58.0218 8.1289L61.0165 5.22031L24.3927 0Z" fill="#F28529"/>
<path d="M24.3467 3.59453L24.3927 0L24.3467 3.59453Z" fill="#2E4C8C"/>
<path d="M61.0161 5.22031L58.0214 8.12889L56.6406 36.0374H58.8291L61.0161 5.22031Z" fill="#033960"/>
<path d="M55.625 56.5623L57.2508 58.2727L58.0243 47.3718H56.0808L55.625 56.5623Z" fill="#033960"/>
<path d="M2.84029 37.1212L0 44.968H2.00142L2.47059 43.5857H5.39996L5.86914 44.971H7.89283L5.05254 37.1212H2.84029ZM2.97391 42.1069L3.93453 39.234L4.90852 42.101L2.97391 42.1069Z" fill="#F28529"/>
<path d="M13.0001 42.1173C13.023 42.4713 12.9069 42.8202 12.6765 43.0898C12.5616 43.2082 12.4225 43.3005 12.2688 43.3605C12.1151 43.4204 11.9503 43.4466 11.7856 43.4373C11.624 43.445 11.4625 43.4179 11.3122 43.358C11.1619 43.2981 11.0261 43.2066 10.9141 43.0898C10.6836 42.8202 10.5675 42.4713 10.5904 42.1173V38.7307H8.69739V42.3742C8.68443 42.8645 8.78611 43.351 8.99434 43.7951C9.17955 44.18 9.47521 44.5009 9.8436 44.7171C10.2287 44.9342 10.6651 45.044 11.1071 45.0348C11.489 45.0397 11.8666 44.9537 12.2088 44.7839C12.5225 44.6314 12.793 44.4027 12.9957 44.1188V44.968H14.908V38.7322H13.0001V42.1173Z" fill="#F28529"/>
<path d="M18.6352 43.225C18.5857 43.1712 18.548 43.1075 18.5247 43.0382C18.5015 42.9689 18.4931 42.8954 18.5001 42.8226V40.3193H19.7532V38.7307H18.5001V37.2103H16.5893V38.7307H15.8291V40.3193H16.5893V42.8018C16.5893 43.5699 16.7828 44.1232 17.1698 44.4617C17.5568 44.8003 18.0973 44.9695 18.7911 44.9695H19.7636V43.3482H19.0821C18.9231 43.3631 18.7641 43.3193 18.6352 43.225Z" fill="#F28529"/>
<path d="M25.3417 39.0321C24.8279 38.7753 24.2614 38.6416 23.687 38.6416C23.1126 38.6416 22.5461 38.7753 22.0323 39.0321C21.546 39.2889 21.1428 39.6787 20.8697 40.156C20.5923 40.6784 20.4473 41.2608 20.4473 41.8523C20.4473 42.4438 20.5923 43.0262 20.8697 43.5486C21.1385 44.0236 21.5379 44.4116 22.0204 44.6666C22.5286 44.9322 23.0951 45.0665 23.6684 45.0571C24.246 45.0657 24.8167 44.9316 25.3299 44.6666C25.8194 44.4113 26.2261 44.022 26.5028 43.5442C26.784 43.0238 26.9312 42.4416 26.9312 41.8501C26.9312 41.2586 26.784 40.6764 26.5028 40.156C26.2301 39.6789 25.8274 39.2891 25.3417 39.0321V39.0321ZM24.5994 43.0008C24.4808 43.1298 24.3363 43.2324 24.1754 43.3017C24.0145 43.371 23.8407 43.4056 23.6655 43.4031C23.4935 43.407 23.3229 43.3729 23.1656 43.3034C23.0083 43.2338 22.8682 43.1305 22.7553 43.0008C22.5138 42.7325 22.3926 42.349 22.3916 41.8501C22.3916 41.3423 22.5148 40.9593 22.7613 40.6935C22.88 40.5672 23.0233 40.4666 23.1824 40.3978C23.3415 40.329 23.5129 40.2935 23.6863 40.2935C23.8596 40.2935 24.0311 40.329 24.1902 40.3978C24.3492 40.4666 24.4925 40.5672 24.6112 40.6935C24.8607 40.9622 24.9854 41.3453 24.9854 41.8456C24.9854 42.346 24.8547 42.732 24.5979 43.0008H24.5994Z" fill="#F28529"/>
<path d="M35.9049 38.6639C35.4767 38.6604 35.0556 38.7728 34.686 38.989C34.3245 39.1904 34.0185 39.4781 33.7951 39.8264C33.5952 39.4623 33.2947 39.1634 32.9296 38.9653C32.5421 38.7618 32.1095 38.6597 31.672 38.6683C31.3049 38.6627 30.9413 38.7409 30.6089 38.897C30.3096 39.0402 30.049 39.253 29.8487 39.5176V38.7307H27.9453V44.9665H29.8562V41.5814C29.8349 41.2401 29.9497 40.9043 30.1754 40.6475C30.4186 40.4357 30.7303 40.319 31.0529 40.319C31.3754 40.319 31.6871 40.4357 31.9303 40.6475C32.1556 40.9045 32.2699 41.2403 32.2481 41.5814V44.968H34.1485V41.5814C34.1273 41.2401 34.2421 40.9043 34.4677 40.6475C34.711 40.4357 35.0227 40.319 35.3452 40.319C35.6678 40.319 35.9794 40.4357 36.2227 40.6475C36.4484 40.9043 36.5631 41.2401 36.5419 41.5814V44.968H38.4394V41.3245C38.4394 40.4901 38.2102 39.8378 37.752 39.3676C37.2937 38.8975 36.678 38.6629 35.9049 38.6639Z" fill="#F28529"/>
<path d="M44.0812 39.6141C43.894 39.3147 43.6293 39.0715 43.3151 38.9103C42.9561 38.7236 42.5556 38.6311 42.1511 38.6416C41.6577 38.6361 41.173 38.7715 40.754 39.0321C40.3264 39.305 39.9838 39.6923 39.7651 40.1501C39.5254 40.6816 39.4014 41.2581 39.4014 41.8412C39.4014 42.4243 39.5254 43.0008 39.7651 43.5323C39.9835 43.993 40.3259 44.3837 40.754 44.6607C41.1674 44.9246 41.6488 45.0624 42.1392 45.0571C42.5415 45.0661 42.9396 44.9742 43.2973 44.7899C43.6125 44.6254 43.8799 44.3825 44.0738 44.0846V44.968H45.9847V38.7322H44.0812V39.6141ZM43.6833 42.9785C43.5592 43.1097 43.4095 43.2142 43.2436 43.2856C43.0777 43.357 42.8989 43.3938 42.7183 43.3938C42.5376 43.3938 42.3589 43.357 42.1929 43.2856C42.027 43.2142 41.8774 43.1097 41.7532 42.9785C41.4771 42.6672 41.3347 42.2597 41.3568 41.8442C41.3451 41.6401 41.3742 41.4358 41.4422 41.2431C41.5103 41.0504 41.616 40.8732 41.7532 40.7217C41.8779 40.5914 42.0277 40.4878 42.1936 40.417C42.3594 40.3462 42.5379 40.3097 42.7183 40.3097C42.8986 40.3097 43.0771 40.3462 43.2429 40.417C43.4088 40.4878 43.5586 40.5914 43.6833 40.7217C43.9409 41.0417 44.0813 41.4401 44.0813 41.8508C44.0813 42.2616 43.9409 42.66 43.6833 42.98V42.9785Z" fill="#F28529"/>
<path d="M49.7232 43.225C49.6739 43.171 49.6365 43.1073 49.6132 43.038C49.5899 42.9687 49.5814 42.8954 49.5881 42.8226V40.3193H50.8412V38.7307H49.5881V37.2103H47.6742V38.7307H46.9141V40.3193H47.6742V42.8018C47.6742 43.5699 47.8683 44.1232 48.2563 44.4617C48.4721 44.6447 48.7255 44.778 48.9986 44.8522C49.2849 44.9336 49.5815 44.9731 49.8791 44.9695H50.8516V43.3482H50.1686C50.0101 43.3628 49.8517 43.3189 49.7232 43.225Z" fill="#F28529"/>
<path d="M56.2938 39.0217C55.7978 38.7617 55.2443 38.631 54.6844 38.6416C54.1123 38.6305 53.5467 38.7649 53.0408 39.0321C52.569 39.2883 52.1824 39.6769 51.9287 40.1501C51.6543 40.6739 51.5179 41.259 51.5323 41.8501C51.5182 42.4414 51.6568 43.0264 51.9346 43.5486C52.1905 44.0217 52.5784 44.4102 53.0512 44.6666C53.5535 44.9335 54.1156 45.0679 54.6844 45.0571C55.1574 45.0645 55.6265 44.9693 56.0592 44.778C56.4545 44.6032 56.8041 44.3395 57.0807 44.0074C57.3508 43.6858 57.5442 43.3071 57.6464 42.8998H55.6108C55.5286 43.0913 55.3888 43.2524 55.2108 43.3607C55.0327 43.469 54.8254 43.5191 54.6175 43.5041C54.3175 43.5119 54.0264 43.4015 53.8069 43.1967C53.5716 42.9594 53.4375 42.6401 53.4327 42.3059H57.7577C57.7798 42.1206 57.7912 41.9342 57.7919 41.7476C57.8044 41.1747 57.6678 40.6083 57.3955 40.1041C57.1395 39.6452 56.7571 39.2696 56.2938 39.0217ZM53.4431 41.2488C53.4762 40.943 53.6217 40.6604 53.8514 40.4559C54.0782 40.2663 54.3666 40.1664 54.6621 40.1753C54.9684 40.1669 55.2669 40.2727 55.4995 40.4723C55.6106 40.5691 55.6984 40.6898 55.7565 40.8252C55.8146 40.9607 55.8414 41.1075 55.835 41.2547L53.4431 41.2488Z" fill="#F28529"/>
<path d="M64.3468 39.3736C63.9123 38.9014 63.3293 38.6648 62.5978 38.6639C62.2155 38.6577 61.8369 38.74 61.4917 38.9044C61.1792 39.0516 60.9098 39.2765 60.7092 39.5577V38.7307H58.7969V44.9665H60.7107V41.5813C60.6884 41.2275 60.8045 40.8788 61.0344 40.6089C61.2702 40.3867 61.5819 40.263 61.9059 40.263C62.2299 40.263 62.5416 40.3867 62.7774 40.6089C63.0079 40.8786 63.1245 41.2273 63.1026 41.5813V44.968H65.0031V41.3245C65.0021 40.497 64.7833 39.8467 64.3468 39.3736Z" fill="#F28529"/>
<path d="M55.1834 27.368L51.0825 27.4304L51.0439 28.7859L55.1166 28.7236L55.1834 27.368Z" fill="#033960"/>
<path d="M29.2867 14.1688C29.3417 11.9862 29.3758 10.5371 29.3758 10.5371L48.1413 13.0864L47.497 36.0374H49.0054L49.681 11.7739L27.8555 8.80444C27.8555 8.80444 27.9045 11.0315 27.9787 14.1628L29.2867 14.1688Z" fill="#F3763D"/>
<path d="M52.8412 18.8531L51.6089 18.7343C51.5718 18.7308 51.5343 18.7351 51.4989 18.7467C51.4635 18.7583 51.4308 18.7771 51.403 18.8019C51.3751 18.8267 51.3526 18.8569 51.337 18.8908C51.3213 18.9246 51.3128 18.9613 51.312 18.9986L51.2882 19.8597C51.2862 19.931 51.312 20.0002 51.3603 20.0526C51.4086 20.105 51.4754 20.1365 51.5465 20.1404L52.7729 20.2057C52.809 20.2077 52.8451 20.2025 52.8791 20.1904C52.9131 20.1783 52.9444 20.1595 52.971 20.1352C52.9977 20.1108 53.0193 20.0814 53.0345 20.0487C53.0497 20.0159 53.0582 19.9805 53.0595 19.9444L53.0921 19.1367C53.0943 19.0663 53.0696 18.9978 53.0229 18.9451C52.9763 18.8924 52.9113 18.8595 52.8412 18.8531V18.8531Z" fill="#F3763D"/>
<path d="M52.7466 21.095L51.538 21.0312C51.5015 21.0292 51.465 21.0345 51.4306 21.0469C51.3962 21.0593 51.3647 21.0784 51.3378 21.1032C51.3109 21.128 51.2893 21.1579 51.2742 21.1912C51.2592 21.2245 51.2509 21.2604 51.25 21.297L51.2247 22.222C51.2237 22.2578 51.2298 22.2936 51.2426 22.3271C51.2555 22.3606 51.2748 22.3913 51.2995 22.4173C51.3241 22.4434 51.3537 22.4643 51.3865 22.479C51.4193 22.4936 51.4546 22.5016 51.4905 22.5026L52.6887 22.5382C52.7606 22.5402 52.8305 22.5137 52.883 22.4645C52.9356 22.4153 52.9666 22.3473 52.9693 22.2754L53.0049 21.3846C53.009 21.3119 52.984 21.2407 52.9356 21.1864C52.8872 21.1321 52.8192 21.0993 52.7466 21.095V21.095Z" fill="#F3763D"/>
<path d="M55.4459 16.8324L54.3769 16.6839C54.3392 16.6787 54.3007 16.6815 54.2641 16.692C54.2275 16.7025 54.1934 16.7206 54.1642 16.7451C54.135 16.7696 54.1112 16.7999 54.0944 16.8341C54.0776 16.8683 54.0681 16.9057 54.0666 16.9437L54.0325 17.8138C54.0295 17.8836 54.0534 17.9519 54.0992 18.0047C54.1451 18.0574 54.2094 18.0906 54.2789 18.0974L55.342 18.1998C55.3786 18.2031 55.4155 18.1989 55.4504 18.1875C55.4854 18.1762 55.5177 18.1579 55.5454 18.1338C55.5731 18.1097 55.5957 18.0802 55.6118 18.0472C55.6279 18.0141 55.6371 17.9782 55.639 17.9415L55.679 17.113C55.6819 17.0456 55.6597 16.9796 55.6166 16.9278C55.5735 16.8759 55.5127 16.8419 55.4459 16.8324Z" fill="#F3763D"/>
<path d="M52.9468 16.4924L51.6877 16.3216C51.6496 16.3164 51.6108 16.3193 51.5739 16.3301C51.5369 16.3409 51.5027 16.3593 51.4734 16.3843C51.4441 16.4093 51.4204 16.4401 51.4039 16.4749C51.3873 16.5096 51.3783 16.5474 51.3774 16.5859L51.3507 17.5599C51.3488 17.6291 51.3732 17.6965 51.4189 17.7485C51.4646 17.8006 51.5283 17.8334 51.5972 17.8405L52.8473 17.9608C52.8841 17.964 52.9213 17.9598 52.9564 17.9482C52.9915 17.9367 53.024 17.9182 53.0517 17.8937C53.0795 17.8693 53.102 17.8395 53.1179 17.8061C53.1338 17.7727 53.1428 17.7364 53.1442 17.6995L53.1799 16.7745C53.1828 16.707 53.1606 16.6407 53.1175 16.5886C53.0745 16.5365 53.0136 16.5022 52.9468 16.4924V16.4924Z" fill="#F3763D"/>
<path d="M55.0956 23.5003L54.0845 23.4691C54.0124 23.4671 53.9424 23.4936 53.8896 23.5427C53.8368 23.5919 53.8055 23.6599 53.8024 23.7319L53.7667 24.6391C53.7656 24.6756 53.7716 24.712 53.7846 24.7462C53.7976 24.7803 53.8172 24.8115 53.8423 24.8381C53.8675 24.8646 53.8976 24.8858 53.931 24.9006C53.9644 24.9154 54.0004 24.9234 54.037 24.9242L55.0406 24.936C55.1114 24.9369 55.1796 24.9103 55.2311 24.8618C55.2826 24.8134 55.3134 24.7468 55.3168 24.6762L55.3599 23.7854C55.3614 23.7493 55.3559 23.7132 55.3434 23.6792C55.3309 23.6453 55.3119 23.6141 55.2873 23.5876C55.2627 23.5611 55.2331 23.5397 55.2002 23.5248C55.1673 23.5098 55.1317 23.5015 55.0956 23.5003Z" fill="#F3763D"/>
<path d="M52.6485 23.4261L51.4607 23.3919C51.4248 23.3909 51.3891 23.397 51.3556 23.4098C51.3221 23.4227 51.2914 23.442 51.2653 23.4667C51.2393 23.4913 51.2183 23.5209 51.2037 23.5537C51.1891 23.5865 51.1811 23.6218 51.1801 23.6577L51.1534 24.6109C51.1526 24.6471 51.159 24.6831 51.1721 24.7168C51.1853 24.7505 51.205 24.7813 51.2301 24.8074C51.2553 24.8335 51.2853 24.8543 51.3185 24.8688C51.3517 24.8832 51.3874 24.8909 51.4236 24.8915L52.5951 24.9063C52.6663 24.9072 52.735 24.8802 52.7865 24.8311C52.8381 24.782 52.8685 24.7147 52.8712 24.6435L52.9083 23.7111C52.9112 23.639 52.8855 23.5687 52.8369 23.5153C52.7882 23.462 52.7206 23.4299 52.6485 23.4261V23.4261Z" fill="#F3763D"/>
<path d="M55.3252 19.0877L54.2755 18.9867C54.2387 18.9837 54.2017 18.9881 54.1666 18.9997C54.1316 19.0113 54.0992 19.0299 54.0715 19.0543C54.0438 19.0787 54.0213 19.1084 54.0053 19.1417C53.9893 19.175 53.9802 19.2112 53.9786 19.248L53.9504 19.9904C53.9479 20.062 53.9736 20.1318 54.0218 20.1848C54.0701 20.2378 54.1371 20.2698 54.2087 20.274L55.248 20.3289C55.284 20.3309 55.3201 20.3258 55.3541 20.3138C55.3881 20.3018 55.4194 20.2832 55.4461 20.259C55.4729 20.2349 55.4947 20.2056 55.5101 20.173C55.5255 20.1405 55.5343 20.1051 55.536 20.0691L55.5702 19.3713C55.5725 19.3019 55.5486 19.2341 55.5032 19.1816C55.4578 19.129 55.3942 19.0955 55.3252 19.0877Z" fill="#F3763D"/>
<path d="M55.2167 21.2272L54.1774 21.1663C54.1412 21.1643 54.1051 21.1695 54.071 21.1816C54.0369 21.1937 54.0055 21.2124 53.9787 21.2367C53.9519 21.2611 53.9302 21.2905 53.9149 21.3232C53.8995 21.356 53.8908 21.3915 53.8893 21.4276L53.8566 22.2917C53.8553 22.3277 53.861 22.3637 53.8736 22.3974C53.8861 22.4312 53.9052 22.4622 53.9298 22.4885C53.9543 22.5149 53.9839 22.5361 54.0167 22.551C54.0495 22.5659 54.0849 22.5742 54.1209 22.5753L55.1454 22.6065C55.2173 22.6085 55.2871 22.5823 55.3398 22.5334C55.3925 22.4846 55.424 22.417 55.4275 22.3452L55.4676 21.5063C55.4697 21.4364 55.4448 21.3684 55.3981 21.3165C55.3513 21.2645 55.2864 21.2325 55.2167 21.2272V21.2272Z" fill="#F3763D"/>
<path d="M13.171 18.9392V34.1488H9.45922V27.8877H3.7044V34.1488H0V18.9392H3.7044V24.8974H9.46664V18.9392H13.171Z" fill="#033960"/>
<path d="M27.4672 34.1488L26.0597 32.7843C24.6581 33.8484 22.9828 34.3804 21.0339 34.3804C19.9869 34.4041 18.9465 34.2084 17.9798 33.8058C17.1686 33.4696 16.4724 32.9054 15.9754 32.1815C15.5004 31.4531 15.2572 30.598 15.2776 29.7287C15.268 28.8084 15.536 27.9066 16.0466 27.1409C16.5594 26.3688 17.3285 25.7368 18.3539 25.2449C18.016 24.8459 17.7452 24.3945 17.5522 23.9086C17.3897 23.4609 17.3093 22.9877 17.3146 22.5115C17.3075 21.8136 17.503 21.1287 17.8773 20.5398C18.2769 19.9274 18.8437 19.4425 19.5105 19.1426C20.3102 18.7893 21.1785 18.6183 22.0524 18.6423C23.0481 18.6423 23.8929 18.8229 24.5868 19.1842C25.2377 19.5052 25.7803 20.0101 26.1473 20.6363C26.4931 21.2412 26.6581 21.9328 26.6224 22.6288H23.1347C23.1518 22.4663 23.1341 22.3021 23.0829 22.147C23.0317 21.9919 22.9482 21.8494 22.8378 21.729C22.7275 21.6229 22.5968 21.5404 22.4536 21.4866C22.3104 21.4327 22.1577 21.4086 22.0049 21.4157C21.689 21.4034 21.3798 21.5093 21.1378 21.7127C21.0257 21.8086 20.9365 21.9284 20.8766 22.0633C20.8168 22.1981 20.7878 22.3447 20.7918 22.4922C20.804 22.8307 20.9066 23.1598 21.0888 23.4454C21.3515 23.8622 21.6608 24.2477 22.0108 24.5945L25.7152 28.2114C25.7434 28.1401 25.7835 28.0525 25.834 27.9515C25.8845 27.8506 25.9379 27.7348 25.9958 27.6056L26.7976 26.2396H30.502L29.4627 28.1252C29.0804 28.9671 28.6337 29.7782 28.1264 30.5513L31.7878 34.1473L27.4672 34.1488ZM23.7851 30.5736L20.4058 27.3072C19.3665 27.8417 18.8468 28.5637 18.8468 29.4734C18.8428 29.7361 18.8981 29.9963 19.0086 30.2346C19.1192 30.4729 19.2821 30.6832 19.4853 30.8497C19.9119 31.2179 20.486 31.402 21.2076 31.402C22.134 31.4139 23.039 31.123 23.7851 30.5736V30.5736Z" fill="#033960"/>
<path d="M35.6347 33.7583C34.7955 33.4291 34.0641 32.8735 33.5219 32.1533C32.9831 31.4094 32.6912 30.5152 32.6875 29.5966H36.6309C36.6874 30.1598 36.8824 30.5894 37.2159 30.8854C37.5773 31.1924 38.0413 31.3515 38.5151 31.3308C39.0644 31.3308 39.4965 31.2046 39.8142 30.9522C39.9712 30.8272 40.0962 30.6667 40.179 30.484C40.2619 30.3012 40.3002 30.1014 40.2908 29.901C40.296 29.728 40.265 29.5559 40.1998 29.3955C40.1346 29.2352 40.0366 29.0903 39.9122 28.9701C39.6419 28.7121 39.3263 28.5062 38.9813 28.3628C38.4679 28.1538 37.9435 27.9729 37.4104 27.8209C36.5874 27.5789 35.7839 27.2752 35.0066 26.9122C34.3727 26.5985 33.8229 26.1378 33.4031 25.5685C32.9548 24.9747 32.7311 24.2021 32.732 23.2509C32.732 21.8354 33.2443 20.7268 34.2687 19.9251C35.2932 19.1233 36.6295 18.7229 38.2775 18.7239C39.9523 18.7239 41.3024 19.1243 42.3279 19.9251C43.3533 20.7259 43.9022 21.8419 43.9744 23.2732H39.9656C39.9615 23.0527 39.9111 22.8356 39.8178 22.6358C39.7244 22.4361 39.5902 22.2582 39.4237 22.1136C39.0632 21.8218 38.6088 21.6714 38.1454 21.6904C37.7528 21.672 37.3672 21.7994 37.063 22.0483C36.9221 22.1783 36.8119 22.3381 36.7405 22.5161C36.6691 22.6941 36.6383 22.8858 36.6502 23.0772C36.6479 23.3142 36.7115 23.5471 36.834 23.7501C36.9564 23.953 37.1329 24.1179 37.3436 24.2263C37.8059 24.4995 38.5279 24.7965 39.5098 25.1172C40.3279 25.3812 41.1278 25.6981 41.9047 26.0659C42.5297 26.3784 43.0743 26.8305 43.4963 27.3873C43.9447 27.9654 44.1689 28.7078 44.1689 29.6144C44.1774 30.4481 43.9482 31.267 43.5082 31.9752C43.0406 32.7071 42.3763 33.2927 41.5914 33.6648C40.7521 34.0835 39.7622 34.2928 38.622 34.2928C37.6009 34.3115 36.586 34.1299 35.6347 33.7583Z" fill="#033960"/>
</g>
<defs>
<clipPath id="clip0_136_2822">
<rect width="65" height="59.557" fill="white"/>
</clipPath>
</defs>
</svg>
